<svg width="432" height="96" viewBox="0 0 432 96" fill="none" xmlns="http://www.w3.org/2000/svg">
<g opacity="0.835472" filter="url(#filter0_d_1_156)">
<path d="M15 34.5312C15 32.3229 16.7902 30.5327 18.9986 30.5327C21.2069 30.5327 22.9972 32.3229 22.9972 34.5312V61.1505C22.9972 63.3589 21.2069 65.1491 18.9986 65.1491C16.7902 65.1491 15 63.3589 15 61.1505V34.5312Z" fill="url(#paint0_linear_1_156)"/>
</g>
<g opacity="0.794031" filter="url(#filter1_d_1_156)">
<path d="M28.9915 30.206C28.9915 27.9976 30.7817 26.2074 32.99 26.2074C35.1984 26.2074 36.9886 27.9976 36.9886 30.206V65.4759C36.9886 67.6842 35.1984 69.4744 32.99 69.4744C30.7817 69.4744 28.9915 67.6842 28.9915 65.4759V30.206Z" fill="url(#paint1_linear_1_156)"/>
</g>
<g opacity="0.755141" filter="url(#filter2_d_1_156)">
<path d="M42.9829 37.0455C42.9829 34.8371 44.7731 33.0469 46.9815 33.0469C49.1898 33.0469 50.9801 34.8371 50.9801 37.0455V58.6364C50.9801 60.8447 49.1898 62.6349 46.9815 62.6349C44.7731 62.6349 42.9829 60.8447 42.9829 58.6364V37.0455Z" fill="url(#paint2_linear_1_156)"/>
</g>
<g opacity="0.718909" filter="url(#filter3_d_1_156)">
<path d="M56.9744 21.8892C56.9744 19.6809 58.7646 17.8906 60.9729 17.8906C63.1813 17.8906 64.9715 19.6809 64.9715 21.8892V73.7926C64.9715 76.001 63.1813 77.7912 60.9729 77.7912C58.7646 77.7912 56.9744 76.001 56.9744 73.7926V21.8892Z" fill="url(#paint3_linear_1_156)"/>
</g>
<g opacity="0.685412" filter="url(#filter4_d_1_156)">
<path d="M70.9658 25.6179C70.9658 23.4095 72.756 21.6193 74.9644 21.6193C77.1728 21.6193 78.963 23.4095 78.963 25.6179V70.0639C78.963 72.2723 77.1728 74.0625 74.9644 74.0625C72.756 74.0625 70.9658 72.2723 70.9658 70.0639V25.6179Z" fill="url(#paint4_linear_1_156)"/>
</g>
<g opacity="0.654705" filter="url(#filter5_d_1_156)">
<path d="M84.9573 33.2671C84.9573 31.0587 86.7475 29.2685 88.9559 29.2685C91.1642 29.2685 92.9544 31.0587 92.9544 33.2671V62.4148C92.9544 64.6232 91.1642 66.4134 88.9559 66.4134C86.7475 66.4134 84.9573 64.6232 84.9573 62.4148V33.2671Z" fill="url(#paint5_linear_1_156)"/>
</g>
<g opacity="0.626822" filter="url(#filter6_d_1_156)">
<path d="M98.9487 18.9986C98.9487 16.7902 100.739 15 102.947 15C105.156 15 106.946 16.7902 106.946 18.9986V76.6832C106.946 78.8916 105.156 80.6818 102.947 80.6818C100.739 80.6818 98.9487 78.8916 98.9487 76.6832V18.9986Z" fill="url(#paint6_linear_1_156)"/>
</g>
<g opacity="0.601776" filter="url(#filter7_d_1_156)">
<path d="M112.94 30.554C112.94 28.3456 114.73 26.5554 116.939 26.5554C119.147 26.5554 120.937 28.3456 120.937 30.554V65.1279C120.937 67.3362 119.147 69.1264 116.939 69.1264C114.73 69.1264 112.94 67.3362 112.94 65.1279V30.554Z" fill="url(#paint7_linear_1_156)"/>
</g>
<g opacity="0.579566" filter="url(#filter8_d_1_156)">
<path d="M126.932 38.1889C126.932 35.9806 128.722 34.1904 130.93 34.1904C133.139 34.1904 134.929 35.9806 134.929 38.1889V57.4929C134.929 59.7013 133.139 61.4915 130.93 61.4915C128.722 61.4915 126.932 59.7013 126.932 57.4929V38.1889Z" fill="url(#paint8_linear_1_156)"/>
</g>
<g opacity="0.345132">
<path d="M140.923 33.0043C140.923 31.9021 141.817 31.0085 142.919 31.0085C144.021 31.0085 144.915 31.9021 144.915 33.0043V62.6776C144.915 63.7798 144.021 64.6733 142.919 64.6733C141.817 64.6733 140.923 63.7798 140.923 62.6776V33.0043Z" fill="url(#paint9_linear_1_156)"/>
</g>
<g opacity="0.332683">
<path d="M150.909 38.0327C150.909 36.9304 151.802 36.0369 152.905 36.0369C154.007 36.0369 154.9 36.9304 154.9 38.0327V57.6491C154.9 58.7514 154.007 59.6449 152.905 59.6449C151.802 59.6449 150.909 58.7514 150.909 57.6491V38.0327Z" fill="url(#paint10_linear_1_156)"/>
</g>
<g opacity="0.3223">
<path d="M160.895 42.5071C160.895 41.4049 161.788 40.5114 162.89 40.5114C163.993 40.5114 164.886 41.4049 164.886 42.5071V53.1747C164.886 54.2769 163.993 55.1704 162.89 55.1704C161.788 55.1704 160.895 54.2769 160.895 53.1747V42.5071Z" fill="url(#paint11_linear_1_156)"/>
</g>
<g opacity="0.313948">
<path d="M170.88 46.4133C170.88 45.3111 171.774 44.4176 172.876 44.4176C173.978 44.4176 174.872 45.3111 174.872 46.4133V49.2685C174.872 50.3707 173.978 51.2642 172.876 51.2642C171.774 51.2642 170.88 50.3707 170.88 49.2685V46.4133Z" fill="url(#paint12_linear_1_156)"/>
</g>
<defs>
<filter id="filter0_d_1_156" x="0" y="15.5327" width="37.9972" height="64.6165" filterUnits="userSpaceOnUse" color-interpolation-filters="sRGB">
<feFlood flood-opacity="0" result="BackgroundImageFix"/>
<feColorMatrix in="SourceAlpha" type="matrix" values="0 0 0 0 0 0 0 0 0 0 0 0 0 0 0 0 0 0 127 0" result="hardAlpha"/>
<feOffset/>
<feGaussianBlur stdDeviation="7.5"/>
<feComposite in2="hardAlpha" operator="out"/>
<feColorMatrix type="matrix" values="0 0 0 0 0.521569 0 0 0 0 0.843137 0 0 0 0 0.964706 0 0 0 0.6 0"/>
<feBlend mode="normal" in2="BackgroundImageFix" result="effect1_dropShadow_1_156"/>
<feBlend mode="normal" in="SourceGraphic" in2="effect1_dropShadow_1_156" result="shape"/>
</filter>
<filter id="filter1_d_1_156" x="13.9915" y="11.2074" width="37.9972" height="73.267" filterUnits="userSpaceOnUse" color-interpolation-filters="sRGB">
<feFlood flood-opacity="0" result="BackgroundImageFix"/>
<feColorMatrix in="SourceAlpha" type="matrix" values="0 0 0 0 0 0 0 0 0 0 0 0 0 0 0 0 0 0 127 0" result="hardAlpha"/>
<feOffset/>
<feGaussianBlur stdDeviation="7.5"/>
<feComposite in2="hardAlpha" operator="out"/>
<feColorMatrix type="matrix" values="0 0 0 0 0.521569 0 0 0 0 0.843137 0 0 0 0 0.964706 0 0 0 0.6 0"/>
<feBlend mode="normal" in2="BackgroundImageFix" result="effect1_dropShadow_1_156"/>
<feBlend mode="normal" in="SourceGraphic" in2="effect1_dropShadow_1_156" result="shape"/>
</filter>
<filter id="filter2_d_1_156" x="27.9829" y="18.0469" width="37.9972" height="59.5881" filterUnits="userSpaceOnUse" color-interpolation-filters="sRGB">
<feFlood flood-opacity="0" result="BackgroundImageFix"/>
<feColorMatrix in="SourceAlpha" type="matrix" values="0 0 0 0 0 0 0 0 0 0 0 0 0 0 0 0 0 0 127 0" result="hardAlpha"/>
<feOffset/>
<feGaussianBlur stdDeviation="7.5"/>
<feComposite in2="hardAlpha" operator="out"/>
<feColorMatrix type="matrix" values="0 0 0 0 0.521569 0 0 0 0 0.843137 0 0 0 0 0.964706 0 0 0 0.6 0"/>
<feBlend mode="normal" in2="BackgroundImageFix" result="effect1_dropShadow_1_156"/>
<feBlend mode="normal" in="SourceGraphic" in2="effect1_dropShadow_1_156" result="shape"/>
</filter>
<filter id="filter3_d_1_156" x="41.9744" y="2.89062" width="37.9972" height="89.9006" filterUnits="userSpaceOnUse" color-interpolation-filters="sRGB">
<feFlood flood-opacity="0" result="BackgroundImageFix"/>
<feColorMatrix in="SourceAlpha" type="matrix" values="0 0 0 0 0 0 0 0 0 0 0 0 0 0 0 0 0 0 127 0" result="hardAlpha"/>
<feOffset/>
<feGaussianBlur stdDeviation="7.5"/>
<feComposite in2="hardAlpha" operator="out"/>
<feColorMatrix type="matrix" values="0 0 0 0 0.521569 0 0 0 0 0.843137 0 0 0 0 0.964706 0 0 0 0.6 0"/>
<feBlend mode="normal" in2="BackgroundImageFix" result="effect1_dropShadow_1_156"/>
<feBlend mode="normal" in="SourceGraphic" in2="effect1_dropShadow_1_156" result="shape"/>
</filter>
<filter id="filter4_d_1_156" x="55.9658" y="6.61932" width="37.9972" height="82.4432" filterUnits="userSpaceOnUse" color-interpolation-filters="sRGB">
<feFlood flood-opacity="0" result="BackgroundImageFix"/>
<feColorMatrix in="SourceAlpha" type="matrix" values="0 0 0 0 0 0 0 0 0 0 0 0 0 0 0 0 0 0 127 0" result="hardAlpha"/>
<feOffset/>
<feGaussianBlur stdDeviation="7.5"/>
<feComposite in2="hardAlpha" operator="out"/>
<feColorMatrix type="matrix" values="0 0 0 0 0.521569 0 0 0 0 0.843137 0 0 0 0 0.964706 0 0 0 0.6 0"/>
<feBlend mode="normal" in2="BackgroundImageFix" result="effect1_dropShadow_1_156"/>
<feBlend mode="normal" in="SourceGraphic" in2="effect1_dropShadow_1_156" result="shape"/>
</filter>
<filter id="filter5_d_1_156" x="69.9573" y="14.2685" width="37.9972" height="67.1449" filterUnits="userSpaceOnUse" color-interpolation-filters="sRGB">
<feFlood flood-opacity="0" result="BackgroundImageFix"/>
<feColorMatrix in="SourceAlpha" type="matrix" values="0 0 0 0 0 0 0 0 0 0 0 0 0 0 0 0 0 0 127 0" result="hardAlpha"/>
<feOffset/>
<feGaussianBlur stdDeviation="7.5"/>
<feComposite in2="hardAlpha" operator="out"/>
<feColorMatrix type="matrix" values="0 0 0 0 0.521569 0 0 0 0 0.843137 0 0 0 0 0.964706 0 0 0 0.6 0"/>
<feBlend mode="normal" in2="BackgroundImageFix" result="effect1_dropShadow_1_156"/>
<feBlend mode="normal" in="SourceGraphic" in2="effect1_dropShadow_1_156" result="shape"/>
</filter>
<filter id="filter6_d_1_156" x="83.9487" y="0" width="37.9972" height="95.6818" filterUnits="userSpaceOnUse" color-interpolation-filters="sRGB">
<feFlood flood-opacity="0" result="BackgroundImageFix"/>
<feColorMatrix in="SourceAlpha" type="matrix" values="0 0 0 0 0 0 0 0 0 0 0 0 0 0 0 0 0 0 127 0" result="hardAlpha"/>
<feOffset/>
<feGaussianBlur stdDeviation="7.5"/>
<feComposite in2="hardAlpha" operator="out"/>
<feColorMatrix type="matrix" values="0 0 0 0 0.521569 0 0 0 0 0.843137 0 0 0 0 0.964706 0 0 0 0.6 0"/>
<feBlend mode="normal" in2="BackgroundImageFix" result="effect1_dropShadow_1_156"/>
<feBlend mode="normal" in="SourceGraphic" in2="effect1_dropShadow_1_156" result="shape"/>
</filter>
<filter id="filter7_d_1_156" x="97.9402" y="11.5554" width="37.9972" height="72.571" filterUnits="userSpaceOnUse" color-interpolation-filters="sRGB">
<feFlood flood-opacity="0" result="BackgroundImageFix"/>
<feColorMatrix in="SourceAlpha" type="matrix" values="0 0 0 0 0 0 0 0 0 0 0 0 0 0 0 0 0 0 127 0" result="hardAlpha"/>
<feOffset/>
<feGaussianBlur stdDeviation="7.5"/>
<feComposite in2="hardAlpha" operator="out"/>
<feColorMatrix type="matrix" values="0 0 0 0 0.521569 0 0 0 0 0.843137 0 0 0 0 0.964706 0 0 0 0.6 0"/>
<feBlend mode="normal" in2="BackgroundImageFix" result="effect1_dropShadow_1_156"/>
<feBlend mode="normal" in="SourceGraphic" in2="effect1_dropShadow_1_156" result="shape"/>
</filter>
<filter id="filter8_d_1_156" x="111.932" y="19.1904" width="37.9972" height="57.3011" filterUnits="userSpaceOnUse" color-interpolation-filters="sRGB">
<feFlood flood-opacity="0" result="BackgroundImageFix"/>
<feColorMatrix in="SourceAlpha" type="matrix" values="0 0 0 0 0 0 0 0 0 0 0 0 0 0 0 0 0 0 127 0" result="hardAlpha"/>
<feOffset/>
<feGaussianBlur stdDeviation="7.5"/>
<feComposite in2="hardAlpha" operator="out"/>
<feColorMatrix type="matrix" values="0 0 0 0 0.521569 0 0 0 0 0.843137 0 0 0 0 0.964706 0 0 0 0.6 0"/>
<feBlend mode="normal" in2="BackgroundImageFix" result="effect1_dropShadow_1_156"/>
<feBlend mode="normal" in="SourceGraphic" in2="effect1_dropShadow_1_156" result="shape"/>
</filter>
<linearGradient id="paint0_linear_1_156" x1="15" y1="47.8409" x2="22.9972" y2="47.8409" gradientUnits="userSpaceOnUse">
<stop stop-color="#85D7F6"/>
<stop offset="1" stop-color="#4FACFE"/>
</linearGradient>
<linearGradient id="paint1_linear_1_156" x1="28.9915" y1="47.8409" x2="36.9886" y2="47.8409" gradientUnits="userSpaceOnUse">
<stop stop-color="#85D7F6"/>
<stop offset="1" stop-color="#4FACFE"/>
</linearGradient>
<linearGradient id="paint2_linear_1_156" x1="42.9829" y1="47.8409" x2="50.9801" y2="47.8409" gradientUnits="userSpaceOnUse">
<stop stop-color="#85D7F6"/>
<stop offset="1" stop-color="#4FACFE"/>
</linearGradient>
<linearGradient id="paint3_linear_1_156" x1="56.9744" y1="47.8409" x2="64.9715" y2="47.8409" gradientUnits="userSpaceOnUse">
<stop stop-color="#85D7F6"/>
<stop offset="1" stop-color="#4FACFE"/>
</linearGradient>
<linearGradient id="paint4_linear_1_156" x1="70.9658" y1="47.8409" x2="78.963" y2="47.8409" gradientUnits="userSpaceOnUse">
<stop stop-color="#85D7F6"/>
<stop offset="1" stop-color="#4FACFE"/>
</linearGradient>
<linearGradient id="paint5_linear_1_156" x1="84.9573" y1="47.8409" x2="92.9544" y2="47.8409" gradientUnits="userSpaceOnUse">
<stop stop-color="#85D7F6"/>
<stop offset="1" stop-color="#4FACFE"/>
</linearGradient>
<linearGradient id="paint6_linear_1_156" x1="98.9487" y1="47.8409" x2="106.946" y2="47.8409" gradientUnits="userSpaceOnUse">
<stop stop-color="#85D7F6"/>
<stop offset="1" stop-color="#4FACFE"/>
</linearGradient>
<linearGradient id="paint7_linear_1_156" x1="112.94" y1="47.8409" x2="120.937" y2="47.8409" gradientUnits="userSpaceOnUse">
<stop stop-color="#85D7F6"/>
<stop offset="1" stop-color="#4FACFE"/>
</linearGradient>
<linearGradient id="paint8_linear_1_156" x1="126.932" y1="47.8409" x2="134.929" y2="47.8409" gradientUnits="userSpaceOnUse">
<stop stop-color="#85D7F6"/>
<stop offset="1" stop-color="#4FACFE"/>
</linearGradient>
<linearGradient id="paint9_linear_1_156" x1="140.923" y1="47.8409" x2="144.915" y2="47.8409" gradientUnits="userSpaceOnUse">
<stop stop-color="#85D7F6" stop-opacity="0.7"/>
<stop offset="1" stop-opacity="0"/>
</linearGradient>
<linearGradient id="paint10_linear_1_156" x1="150.909" y1="47.8409" x2="154.9" y2="47.8409" gradientUnits="userSpaceOnUse">
<stop stop-color="#85D7F6" stop-opacity="0.7"/>
<stop offset="1" stop-opacity="0"/>
</linearGradient>
<linearGradient id="paint11_linear_1_156" x1="160.895" y1="47.8409" x2="164.886" y2="47.8409" gradientUnits="userSpaceOnUse">
<stop stop-color="#85D7F6" stop-opacity="0.7"/>
<stop offset="1" stop-opacity="0"/>
</linearGradient>
<linearGradient id="paint12_linear_1_156" x1="170.88" y1="47.8409" x2="174.872" y2="47.8409" gradientUnits="userSpaceOnUse">
<stop stop-color="#85D7F6" stop-opacity="0.7"/>
<stop offset="1" stop-opacity="0"/>
</linearGradient>
</defs>
</svg>
