<svg width="639" height="245" viewBox="0 0 639 245" fill="none" xmlns="http://www.w3.org/2000/svg">
<rect width="100%" height="100%" fill="#131733"/>
<path d="M341.09 0C394.05 0 437.521 41.629 442.047 94.698C479.991 97.2344 510.001 129.577 510.001 169.103C510.001 210.285 477.425 243.668 437.239 243.668C436.805 243.668 436.372 243.662 435.94 243.654V243.668H206.668C202.45 244.541 198.086 245 193.617 245C157.378 245 128.001 214.895 128.001 177.758C128.001 145.667 149.938 118.827 179.282 112.126C178.883 109.43 178.675 106.669 178.675 103.859C178.675 73.7082 202.525 49.2663 231.947 49.2663C239.215 49.2663 246.142 50.7593 252.454 53.4598C269.755 21.5744 302.964 0 341.09 0Z" fill="url(#paint0_linear_10_79)"/>
<path d="M41.3203 183.022C38.7547 183.019 36.677 180.937 36.6796 178.372L36.7953 67.6627C36.798 65.0971 38.8801 63.0194 41.4457 63.022C44.0113 63.0247 46.089 65.1067 46.0863 67.6724L45.9706 178.381C45.968 180.947 43.8859 183.025 41.3203 183.022ZM77.5058 183.06C74.9403 183.057 72.8625 180.975 72.8652 178.409L72.9682 79.8186C72.9709 77.2532 75.0531 75.1755 77.6185 75.178C80.1841 75.1807 82.2618 77.2628 82.2592 79.8283L82.1562 178.419C82.1535 180.985 80.0714 183.062 77.5058 183.06ZM95.3859 152.931C92.8204 152.928 90.7428 150.846 90.7453 148.281L90.798 97.8666C90.8007 95.301 92.8827 93.2232 95.4483 93.2259C98.0139 93.2286 100.092 95.3107 100.089 97.8763L100.036 148.29C100.033 150.856 97.9514 152.934 95.3859 152.931ZM23.0149 152.854C20.4493 152.852 18.3715 150.77 18.3742 148.204L18.4269 97.7909C18.4296 95.2253 20.5116 93.1476 23.0773 93.1503C25.6427 93.1532 27.7206 95.2352 27.7179 97.8006L27.6652 148.214C27.6626 150.779 25.5803 152.857 23.0149 152.854ZM59.2044 149.05C56.6389 149.048 54.5612 146.966 54.5638 144.4L54.6053 104.627C54.608 102.061 56.6901 99.9833 59.2557 99.9859C61.8212 99.9887 63.899 102.071 63.8963 104.636L63.8548 144.41C63.852 146.975 61.7699 149.053 59.2044 149.05ZM4.6946 135.989C2.12909 135.986 0.0513145 133.904 0.0539493 131.338L0.0686384 117.28C0.0713191 114.714 2.15345 112.636 4.719 112.639C7.28462 112.642 9.36233 114.724 9.35965 117.289L9.34496 131.348C9.34223 133.913 7.26019 135.991 4.6946 135.989Z" fill="#C837B6"/>
<path d="M596.679 63.0808C599.245 63.0711 601.333 65.1431 601.342 67.7087L601.763 178.417C601.773 180.982 599.701 183.07 597.135 183.08C594.569 183.09 592.482 181.018 592.472 178.452L592.051 67.7439C592.042 65.1783 594.114 63.0906 596.679 63.0808ZM560.494 63.2183C563.059 63.2087 565.147 65.2806 565.157 67.8461L565.532 166.436C565.541 169.002 563.469 171.089 560.904 171.099C558.338 171.109 556.25 169.037 556.241 166.472L555.866 67.8814C555.856 65.3158 557.928 63.228 560.494 63.2183ZM542.76 93.4333C545.325 93.4236 547.413 95.4957 547.423 98.0611L547.615 148.475C547.624 151.04 545.552 153.128 542.987 153.138C540.421 153.148 538.334 151.076 538.324 148.51L538.132 98.0964C538.123 95.5309 540.194 93.4431 542.76 93.4333ZM615.131 93.1584C617.696 93.1487 619.784 95.2208 619.794 97.7863L619.985 148.2C619.995 150.765 617.923 152.853 615.357 152.863C612.792 152.873 610.704 150.801 610.694 148.235L610.503 97.8215C610.493 95.2563 612.565 93.1684 615.131 93.1584ZM578.96 97.1386C581.525 97.1289 583.613 99.2008 583.623 101.766L583.774 141.539C583.784 144.104 581.712 146.192 579.146 146.202C576.581 146.211 574.493 144.139 574.483 141.574L574.332 101.802C574.322 99.2362 576.394 97.1485 578.96 97.1386ZM633.532 109.936C636.098 109.927 638.186 111.999 638.195 114.564L638.249 128.623C638.259 131.188 636.187 133.276 633.621 133.286C631.055 133.295 628.968 131.224 628.958 128.658L628.904 114.599C628.895 112.034 630.967 109.946 633.532 109.936Z" fill="#2799DF"/>
<defs>
<linearGradient id="paint0_linear_10_79" x1="466.474" y1="171.101" x2="16.6728" y2="124.798" gradientUnits="userSpaceOnUse">
<stop stop-color="#85D7F6"/>
<stop offset="1" stop-color="#ED54FE"/>
</linearGradient>
</defs>
</svg>
