<svg width="1000" height="641" viewBox="0 0 1000 641" fill="none" xmlns="http://www.w3.org/2000/svg">
<path d="M557.823 0C696.462 0 810.262 108.915 822.11 247.761C921.439 254.397 1000 339.017 1000 442.429C1000 550.173 914.721 637.516 809.524 637.516C808.388 637.516 807.254 637.499 806.122 637.479V637.516H205.935C194.893 639.799 183.468 641 171.769 641C76.9035 641 0 562.235 0 465.073C0 381.113 57.426 310.891 134.244 293.358C133.198 286.305 132.653 279.081 132.653 271.728C132.653 192.845 195.09 128.897 272.109 128.897C291.134 128.897 309.269 132.803 325.793 139.868C371.084 56.4456 458.017 0 557.823 0Z" fill="url(#paint0_linear_20_19)"/>
<defs>
<linearGradient id="paint0_linear_20_19" x1="886.055" y1="447.655" x2="-291.422" y2="326.377" gradientUnits="userSpaceOnUse">
<stop stop-color="#85D7F6"/>
<stop offset="1" stop-color="#ED54FE"/>
</linearGradient>
</defs>
</svg>
