<svg width="278" height="196" viewBox="0 0 278 196" fill="none" xmlns="http://www.w3.org/2000/svg">
<path d="M137.791 0C180.514 0 215.147 34.2452 215.147 76.4883C215.147 76.5036 215.146 76.5189 215.146 76.5342C215.949 76.503 216.755 76.4883 217.565 76.4883C250.943 76.4884 278 103.242 278 136.244C278 168.988 251.364 195.581 218.347 195.995L217.565 196H54.6328V195.727C23.9777 192.839 0.00012956 167.311 0 136.244C0 103.242 27.0575 76.4884 60.4346 76.4883L60.4414 75.499C60.9768 33.7118 95.4022 0.000153733 137.791 0Z" fill="url(#paint0_linear_6_2)"/>
<defs>
<linearGradient id="paint0_linear_6_2" x1="264.221" y1="137.439" x2="-229.006" y2="41.191" gradientUnits="userSpaceOnUse">
<stop stop-color="#85D7F6"/>
<stop offset="1" stop-color="#ED54FE"/>
</linearGradient>
</defs>
</svg>
