<svg width="1281" height="513" viewBox="0 0 1281 513" fill="none" xmlns="http://www.w3.org/2000/svg">
<g opacity="0.313948">
<path d="M256.15 254.928C256.15 253.826 257.044 252.932 258.146 252.932C259.248 252.932 260.141 253.826 260.141 254.928V257.783C260.141 258.885 259.248 259.779 258.146 259.779C257.044 259.779 256.15 258.885 256.15 257.783V254.928Z" fill="url(#paint0_linear_1_115)"/>
</g>
<g opacity="0.3223">
<path d="M266.136 251.022C266.136 249.919 267.029 249.026 268.132 249.026C269.234 249.026 270.127 249.919 270.127 251.022V261.689C270.127 262.792 269.234 263.685 268.132 263.685C267.029 263.685 266.136 262.792 266.136 261.689V251.022Z" fill="url(#paint1_linear_1_115)"/>
</g>
<g opacity="0.332683">
<path d="M276.122 246.547C276.122 245.445 277.015 244.552 278.117 244.552C279.22 244.552 280.113 245.445 280.113 246.547V266.164C280.113 267.266 279.22 268.159 278.117 268.159C277.015 268.159 276.122 267.266 276.122 266.164V246.547Z" fill="url(#paint2_linear_1_115)"/>
</g>
<g opacity="0.345132">
<path d="M286.108 241.519C286.108 240.417 287.001 239.523 288.103 239.523C289.205 239.523 290.099 240.417 290.099 241.519V271.192C290.099 272.294 289.205 273.188 288.103 273.188C287.001 273.188 286.108 272.294 286.108 271.192V241.519Z" fill="url(#paint3_linear_1_115)"/>
</g>
<g opacity="0.579566" filter="url(#filter0_d_1_115)">
<path d="M296.093 243.287C296.093 241.079 297.884 239.289 300.092 239.289C302.3 239.289 304.091 241.079 304.091 243.287V269.424C304.091 271.632 302.3 273.422 300.092 273.422C297.884 273.422 296.093 271.632 296.093 269.424V243.287Z" fill="url(#paint4_linear_1_115)"/>
</g>
<g opacity="0.601776" filter="url(#filter1_d_1_115)">
<path d="M310.085 239.069C310.085 236.86 311.875 235.07 314.083 235.07C316.292 235.07 318.082 236.86 318.082 239.069V273.642C318.082 275.851 316.292 277.641 314.083 277.641C311.875 277.641 310.085 275.851 310.085 273.642V239.069Z" fill="url(#paint5_linear_1_115)"/>
</g>
<g opacity="0.626822" filter="url(#filter2_d_1_115)">
<path d="M324.076 231.164C324.076 228.955 325.867 227.165 328.075 227.165C330.283 227.165 332.074 228.955 332.074 231.164V281.547C332.074 283.756 330.283 285.546 328.075 285.546C325.867 285.546 324.076 283.756 324.076 281.547V231.164Z" fill="url(#paint6_linear_1_115)"/>
</g>
<g opacity="0.654705" filter="url(#filter3_d_1_115)">
<path d="M338.068 245.496C338.068 243.288 339.858 241.498 342.066 241.498C344.275 241.498 346.065 243.288 346.065 245.496V267.215C346.065 269.423 344.275 271.213 342.066 271.213C339.858 271.213 338.068 269.423 338.068 267.215V245.496Z" fill="url(#paint7_linear_1_115)"/>
</g>
<g opacity="0.685412" filter="url(#filter4_d_1_115)">
<path d="M352.059 234.132C352.059 231.924 353.85 230.134 356.058 230.134C358.266 230.134 360.057 231.924 360.057 234.132V278.579C360.057 280.787 358.266 282.577 356.058 282.577C353.85 282.577 352.059 280.787 352.059 278.579V234.132Z" fill="url(#paint8_linear_1_115)"/>
</g>
<g opacity="0.718909" filter="url(#filter5_d_1_115)">
<path d="M366.051 241.64C366.051 239.431 367.841 237.641 370.05 237.641C372.258 237.641 374.048 239.431 374.048 241.64V271.071C374.048 273.28 372.258 275.07 370.05 275.07C367.841 275.07 366.051 273.28 366.051 271.071V241.64Z" fill="url(#paint9_linear_1_115)"/>
</g>
<g opacity="0.755141" filter="url(#filter6_d_1_115)">
<path d="M380.043 227.066C380.043 224.857 381.833 223.067 384.041 223.067C386.249 223.067 388.04 224.857 388.04 227.066V285.645C388.04 287.854 386.249 289.644 384.041 289.644C381.833 289.644 380.043 287.854 380.043 285.645V227.066Z" fill="url(#paint10_linear_1_115)"/>
</g>
<g opacity="0.794031" filter="url(#filter7_d_1_115)">
<path d="M394.034 238.721C394.034 236.512 395.824 234.722 398.033 234.722C400.241 234.722 402.031 236.512 402.031 238.721V273.99C402.031 276.199 400.241 277.989 398.033 277.989C395.824 277.989 394.034 276.199 394.034 273.99V238.721Z" fill="url(#paint11_linear_1_115)"/>
</g>
<g opacity="0.835472" filter="url(#filter8_d_1_115)">
<path d="M408.026 246.505C408.026 244.296 409.816 242.506 412.024 242.506C414.232 242.506 416.023 244.296 416.023 246.505V266.206C416.023 268.415 414.232 270.205 412.024 270.205C409.816 270.205 408.026 268.415 408.026 266.206V246.505Z" fill="url(#paint12_linear_1_115)"/>
</g>
<g opacity="0.725802" filter="url(#filter9_f_1_115)">
<path d="M419.966 256.355C419.966 185.467 477.432 128 548.321 128H731.693C802.582 128 860.049 185.467 860.049 256.355C860.049 327.244 802.582 384.711 731.693 384.711H548.321C477.432 384.711 419.966 327.244 419.966 256.355Z" fill="url(#paint13_radial_1_115)"/>
</g>
<g opacity="0.0324839">
<mask id="path-15-inside-1_1_115" fill="white">
<path d="M369.148 256.356C369.148 169.095 439.887 98.357 527.147 98.357H752.867C840.128 98.357 910.866 169.095 910.866 256.356C910.866 343.616 840.128 414.354 752.867 414.354H527.147C439.887 414.354 369.148 343.616 369.148 256.356Z"/>
</mask>
<path d="M369.148 256.356M910.866 256.356M910.866 256.356M369.148 256.356M527.147 98.357V100.175H752.867V98.357V96.5388H527.147V98.357ZM910.866 256.356M752.867 414.354V412.536H527.147V414.354V416.172H752.867V414.354ZM369.148 256.356M527.147 414.354V412.536C440.891 412.536 370.966 342.612 370.966 256.356H369.148H367.33C367.33 344.62 438.882 416.172 527.147 416.172V414.354ZM910.866 256.356H909.048C909.048 342.612 839.123 412.536 752.867 412.536V414.354V416.172C841.132 416.172 912.684 344.62 912.684 256.356H910.866ZM752.867 98.357V100.175C839.123 100.175 909.048 170.099 909.048 256.356H910.866H912.684C912.684 168.091 841.132 96.5388 752.867 96.5388V98.357ZM527.147 98.357V96.5388C438.882 96.5388 367.33 168.091 367.33 256.356H369.148H370.966C370.966 170.099 440.891 100.175 527.147 100.175V98.357Z" fill="#00D3F3" fill-opacity="0.3" mask="url(#path-15-inside-1_1_115)"/>
</g>
<g clip-path="url(#clip0_1_115)" filter="url(#filter10_d_1_115)">
<path opacity="0.94645" d="M661.458 140.27C712.889 140.27 755.105 179.719 759.5 230.009C796.348 232.413 825.492 263.062 825.492 300.519C825.492 339.543 793.856 371.179 754.831 371.179C754.41 371.179 753.989 371.173 753.569 371.165V371.179H530.918C526.822 372.006 522.583 372.441 518.243 372.441C483.051 372.441 454.522 343.912 454.522 308.72C454.522 278.31 475.826 252.875 504.323 246.525C503.935 243.97 503.733 241.354 503.733 238.69C503.733 210.118 526.895 186.956 555.466 186.956C562.524 186.956 569.252 188.371 575.382 190.93C592.184 160.715 624.433 140.27 661.458 140.27Z" fill="url(#paint14_linear_1_115)"/>
<path opacity="0.383901" d="M530.467 285.682C531.513 285.682 532.36 284.834 532.36 283.789C532.36 282.744 531.513 281.896 530.467 281.896C529.422 281.896 528.574 282.744 528.574 283.789C528.574 284.834 529.422 285.682 530.467 285.682Z" fill="white"/>
<path opacity="0.589235" d="M664.664 320.629C665.71 320.629 666.557 319.781 666.557 318.736C666.557 317.691 665.71 316.843 664.664 316.843C663.619 316.843 662.772 317.691 662.772 318.736C662.772 319.781 663.619 320.629 664.664 320.629Z" fill="white"/>
<path opacity="0.887399" d="M722.644 244.323C723.69 244.323 724.537 243.476 724.537 242.431C724.537 241.385 723.69 240.538 722.644 240.538C721.599 240.538 720.752 241.385 720.752 242.431C720.752 243.476 721.599 244.323 722.644 244.323Z" fill="white"/>
<path opacity="0.30305" d="M724.712 299.194C725.757 299.194 726.604 298.347 726.604 297.301C726.604 296.256 725.757 295.409 724.712 295.409C723.666 295.409 722.819 296.256 722.819 297.301C722.819 298.347 723.666 299.194 724.712 299.194Z" fill="white"/>
<path opacity="0.701667" d="M706.472 282.437C707.517 282.437 708.364 281.59 708.364 280.544C708.364 279.499 707.517 278.652 706.472 278.652C705.426 278.652 704.579 279.499 704.579 280.544C704.579 281.59 705.426 282.437 706.472 282.437Z" fill="white"/>
<path opacity="0.866564" d="M623.053 232.457C624.099 232.457 624.946 231.61 624.946 230.564C624.946 229.519 624.099 228.672 623.053 228.672C622.008 228.672 621.161 229.519 621.161 230.564C621.161 231.61 622.008 232.457 623.053 232.457Z" fill="white"/>
<path opacity="0.300628" d="M758.284 331.038C759.329 331.038 760.177 330.191 760.177 329.146C760.177 328.1 759.329 327.253 758.284 327.253C757.239 327.253 756.391 328.1 756.391 329.146C756.391 330.191 757.239 331.038 758.284 331.038Z" fill="white"/>
<path opacity="0.88554" d="M677.32 200.078C678.365 200.078 679.213 199.231 679.213 198.186C679.213 197.14 678.365 196.293 677.32 196.293C676.275 196.293 675.427 197.14 675.427 198.186C675.427 199.231 676.275 200.078 677.32 200.078Z" fill="white"/>
<path opacity="0.320566" d="M506.622 263.105C507.668 263.105 508.515 262.258 508.515 261.212C508.515 260.167 507.668 259.32 506.622 259.32C505.577 259.32 504.73 260.167 504.73 261.212C504.73 262.258 505.577 263.105 506.622 263.105Z" fill="white"/>
<path opacity="0.736642" d="M779.858 302.05C780.903 302.05 781.75 301.203 781.75 300.158C781.75 299.112 780.903 298.265 779.858 298.265C778.812 298.265 777.965 299.112 777.965 300.158C777.965 301.203 778.812 302.05 779.858 302.05Z" fill="white"/>
<path opacity="0.300235" d="M765.113 259.816C766.158 259.816 767.005 258.969 767.005 257.923C767.005 256.878 766.158 256.031 765.113 256.031C764.067 256.031 763.22 256.878 763.22 257.923C763.22 258.969 764.067 259.816 765.113 259.816Z" fill="white"/>
<path opacity="0.807073" d="M589.03 232.694C590.075 232.694 590.922 231.847 590.922 230.802C590.922 229.756 590.075 228.909 589.03 228.909C587.984 228.909 587.137 229.756 587.137 230.802C587.137 231.847 587.984 232.694 589.03 232.694Z" fill="white"/>
<path opacity="0.544692" d="M725.411 313.887C726.457 313.887 727.304 313.039 727.304 311.994C727.304 310.949 726.457 310.101 725.411 310.101C724.366 310.101 723.519 310.949 723.519 311.994C723.519 313.039 724.366 313.887 725.411 313.887Z" fill="white"/>
<path opacity="0.551195" d="M653.625 306.32C654.67 306.32 655.518 305.473 655.518 304.427C655.518 303.382 654.67 302.535 653.625 302.535C652.58 302.535 651.732 303.382 651.732 304.427C651.732 305.473 652.58 306.32 653.625 306.32Z" fill="white"/>
<path opacity="0.899997" d="M676.172 259.937C677.217 259.937 678.065 259.089 678.065 258.044C678.065 256.999 677.217 256.151 676.172 256.151C675.127 256.151 674.279 256.999 674.279 258.044C674.279 259.089 675.127 259.937 676.172 259.937Z" fill="white"/>
<path opacity="0.888484" d="M605.727 280.553C606.772 280.553 607.619 279.705 607.619 278.66C607.619 277.615 606.772 276.767 605.727 276.767C604.681 276.767 603.834 277.615 603.834 278.66C603.834 279.705 604.681 280.553 605.727 280.553Z" fill="white"/>
<path opacity="0.78128" d="M512.624 328.483C513.67 328.483 514.517 327.636 514.517 326.59C514.517 325.545 513.67 324.698 512.624 324.698C511.579 324.698 510.732 325.545 510.732 326.59C510.732 327.636 511.579 328.483 512.624 328.483Z" fill="white"/>
<path opacity="0.30149" d="M776.053 247.309C777.099 247.309 777.946 246.462 777.946 245.416C777.946 244.371 777.099 243.524 776.053 243.524C775.008 243.524 774.16 244.371 774.16 245.416C774.16 246.462 775.008 247.309 776.053 247.309Z" fill="white"/>
<path opacity="0.768142" d="M601.031 254.226C602.077 254.226 602.924 253.378 602.924 252.333C602.924 251.288 602.077 250.44 601.031 250.44C599.986 250.44 599.139 251.288 599.139 252.333C599.139 253.378 599.986 254.226 601.031 254.226Z" fill="white"/>
<path opacity="0.315359" d="M757.347 200.867C758.392 200.867 759.24 200.02 759.24 198.974C759.24 197.929 758.392 197.082 757.347 197.082C756.302 197.082 755.454 197.929 755.454 198.974C755.454 200.02 756.302 200.867 757.347 200.867Z" fill="white"/>
</g>
<g opacity="0.835472" filter="url(#filter11_d_1_115)">
<path d="M863.991 243.039C863.991 240.83 865.782 239.04 867.99 239.04C870.198 239.04 871.989 240.83 871.989 243.039V269.658C871.989 271.866 870.198 273.657 867.99 273.657C865.782 273.657 863.991 271.866 863.991 269.658V243.039Z" fill="url(#paint15_linear_1_115)"/>
</g>
<g opacity="0.794031" filter="url(#filter12_d_1_115)">
<path d="M877.983 238.713C877.983 236.505 879.773 234.715 881.981 234.715C884.19 234.715 885.98 236.505 885.98 238.713V273.983C885.98 276.192 884.19 277.982 881.981 277.982C879.773 277.982 877.983 276.192 877.983 273.983V238.713Z" fill="url(#paint16_linear_1_115)"/>
</g>
<g opacity="0.755141" filter="url(#filter13_d_1_115)">
<path d="M891.974 245.553C891.974 243.345 893.765 241.554 895.973 241.554C898.181 241.554 899.971 243.345 899.971 245.553V267.144C899.971 269.352 898.181 271.142 895.973 271.142C893.765 271.142 891.974 269.352 891.974 267.144V245.553Z" fill="url(#paint17_linear_1_115)"/>
</g>
<g opacity="0.718909" filter="url(#filter14_d_1_115)">
<path d="M905.966 230.397C905.966 228.188 907.756 226.398 909.964 226.398C912.173 226.398 913.963 228.188 913.963 230.397V282.3C913.963 284.508 912.173 286.299 909.964 286.299C907.756 286.299 905.966 284.508 905.966 282.3V230.397Z" fill="url(#paint18_linear_1_115)"/>
</g>
<g opacity="0.685412" filter="url(#filter15_d_1_115)">
<path d="M919.957 234.125C919.957 231.917 921.747 230.127 923.956 230.127C926.164 230.127 927.954 231.917 927.954 234.125V278.571C927.954 280.78 926.164 282.57 923.956 282.57C921.747 282.57 919.957 280.78 919.957 278.571V234.125Z" fill="url(#paint19_linear_1_115)"/>
</g>
<g opacity="0.654705" filter="url(#filter16_d_1_115)">
<path d="M933.949 241.775C933.949 239.566 935.739 237.776 937.947 237.776C940.156 237.776 941.946 239.566 941.946 241.775V270.922C941.946 273.131 940.156 274.921 937.947 274.921C935.739 274.921 933.949 273.131 933.949 270.922V241.775Z" fill="url(#paint20_linear_1_115)"/>
</g>
<g opacity="0.626822" filter="url(#filter17_d_1_115)">
<path d="M947.94 227.506C947.94 225.298 949.73 223.508 951.939 223.508C954.147 223.508 955.937 225.298 955.937 227.506V285.191C955.937 287.399 954.147 289.189 951.939 289.189C949.73 289.189 947.94 287.399 947.94 285.191V227.506Z" fill="url(#paint21_linear_1_115)"/>
</g>
<g opacity="0.601776" filter="url(#filter18_d_1_115)">
<path d="M961.932 239.062C961.932 236.853 963.722 235.063 965.93 235.063C968.139 235.063 969.929 236.853 969.929 239.062V273.635C969.929 275.844 968.139 277.634 965.93 277.634C963.722 277.634 961.932 275.844 961.932 273.635V239.062Z" fill="url(#paint22_linear_1_115)"/>
</g>
<g opacity="0.579566" filter="url(#filter19_d_1_115)">
<path d="M975.923 246.696C975.923 244.488 977.713 242.698 979.922 242.698C982.13 242.698 983.92 244.488 983.92 246.696V266C983.92 268.209 982.13 269.999 979.922 269.999C977.713 269.999 975.923 268.209 975.923 266V246.696Z" fill="url(#paint23_linear_1_115)"/>
</g>
<g opacity="0.345132">
<path d="M989.915 241.512C989.915 240.41 990.808 239.516 991.91 239.516C993.012 239.516 993.906 240.41 993.906 241.512V271.185C993.906 272.287 993.012 273.181 991.91 273.181C990.808 273.181 989.915 272.287 989.915 271.185V241.512Z" fill="url(#paint24_linear_1_115)"/>
</g>
<g opacity="0.332683">
<path d="M999.9 246.54C999.9 245.438 1000.79 244.544 1001.9 244.544C1003 244.544 1003.89 245.438 1003.89 246.54V266.157C1003.89 267.259 1003 268.152 1001.9 268.152C1000.79 268.152 999.9 267.259 999.9 266.157V246.54Z" fill="url(#paint25_linear_1_115)"/>
</g>
<g opacity="0.3223">
<path d="M1009.89 251.015C1009.89 249.912 1010.78 249.019 1011.88 249.019C1012.98 249.019 1013.88 249.912 1013.88 251.015V261.682C1013.88 262.784 1012.98 263.678 1011.88 263.678C1010.78 263.678 1009.89 262.784 1009.89 261.682V251.015Z" fill="url(#paint26_linear_1_115)"/>
</g>
<g opacity="0.313948">
<path d="M1019.87 254.921C1019.87 253.819 1020.77 252.925 1021.87 252.925C1022.97 252.925 1023.86 253.819 1023.86 254.921V257.776C1023.86 258.878 1022.97 259.772 1021.87 259.772C1020.77 259.772 1019.87 258.878 1019.87 257.776V254.921Z" fill="url(#paint27_linear_1_115)"/>
</g>
<defs>
<filter id="filter0_d_1_115" x="281.093" y="224.289" width="37.9971" height="64.1335" filterUnits="userSpaceOnUse" color-interpolation-filters="sRGB">
<feFlood flood-opacity="0" result="BackgroundImageFix"/>
<feColorMatrix in="SourceAlpha" type="matrix" values="0 0 0 0 0 0 0 0 0 0 0 0 0 0 0 0 0 0 127 0" result="hardAlpha"/>
<feOffset/>
<feGaussianBlur stdDeviation="7.5"/>
<feComposite in2="hardAlpha" operator="out"/>
<feColorMatrix type="matrix" values="0 0 0 0 0.854902 0 0 0 0 0.262745 0 0 0 0 0.768627 0 0 0 0.6 0"/>
<feBlend mode="normal" in2="BackgroundImageFix" result="effect1_dropShadow_1_115"/>
<feBlend mode="normal" in="SourceGraphic" in2="effect1_dropShadow_1_115" result="shape"/>
</filter>
<filter id="filter1_d_1_115" x="295.085" y="220.07" width="37.9971" height="72.571" filterUnits="userSpaceOnUse" color-interpolation-filters="sRGB">
<feFlood flood-opacity="0" result="BackgroundImageFix"/>
<feColorMatrix in="SourceAlpha" type="matrix" values="0 0 0 0 0 0 0 0 0 0 0 0 0 0 0 0 0 0 127 0" result="hardAlpha"/>
<feOffset/>
<feGaussianBlur stdDeviation="7.5"/>
<feComposite in2="hardAlpha" operator="out"/>
<feColorMatrix type="matrix" values="0 0 0 0 0.854902 0 0 0 0 0.262745 0 0 0 0 0.768627 0 0 0 0.6 0"/>
<feBlend mode="normal" in2="BackgroundImageFix" result="effect1_dropShadow_1_115"/>
<feBlend mode="normal" in="SourceGraphic" in2="effect1_dropShadow_1_115" result="shape"/>
</filter>
<filter id="filter2_d_1_115" x="309.076" y="212.165" width="37.9971" height="88.3807" filterUnits="userSpaceOnUse" color-interpolation-filters="sRGB">
<feFlood flood-opacity="0" result="BackgroundImageFix"/>
<feColorMatrix in="SourceAlpha" type="matrix" values="0 0 0 0 0 0 0 0 0 0 0 0 0 0 0 0 0 0 127 0" result="hardAlpha"/>
<feOffset/>
<feGaussianBlur stdDeviation="7.5"/>
<feComposite in2="hardAlpha" operator="out"/>
<feColorMatrix type="matrix" values="0 0 0 0 0.854902 0 0 0 0 0.262745 0 0 0 0 0.768627 0 0 0 0.6 0"/>
<feBlend mode="normal" in2="BackgroundImageFix" result="effect1_dropShadow_1_115"/>
<feBlend mode="normal" in="SourceGraphic" in2="effect1_dropShadow_1_115" result="shape"/>
</filter>
<filter id="filter3_d_1_115" x="323.068" y="226.498" width="37.9971" height="59.7159" filterUnits="userSpaceOnUse" color-interpolation-filters="sRGB">
<feFlood flood-opacity="0" result="BackgroundImageFix"/>
<feColorMatrix in="SourceAlpha" type="matrix" values="0 0 0 0 0 0 0 0 0 0 0 0 0 0 0 0 0 0 127 0" result="hardAlpha"/>
<feOffset/>
<feGaussianBlur stdDeviation="7.5"/>
<feComposite in2="hardAlpha" operator="out"/>
<feColorMatrix type="matrix" values="0 0 0 0 0.854902 0 0 0 0 0.262745 0 0 0 0 0.768627 0 0 0 0.6 0"/>
<feBlend mode="normal" in2="BackgroundImageFix" result="effect1_dropShadow_1_115"/>
<feBlend mode="normal" in="SourceGraphic" in2="effect1_dropShadow_1_115" result="shape"/>
</filter>
<filter id="filter4_d_1_115" x="337.059" y="215.134" width="37.9971" height="82.4432" filterUnits="userSpaceOnUse" color-interpolation-filters="sRGB">
<feFlood flood-opacity="0" result="BackgroundImageFix"/>
<feColorMatrix in="SourceAlpha" type="matrix" values="0 0 0 0 0 0 0 0 0 0 0 0 0 0 0 0 0 0 127 0" result="hardAlpha"/>
<feOffset/>
<feGaussianBlur stdDeviation="7.5"/>
<feComposite in2="hardAlpha" operator="out"/>
<feColorMatrix type="matrix" values="0 0 0 0 0.854902 0 0 0 0 0.262745 0 0 0 0 0.768627 0 0 0 0.6 0"/>
<feBlend mode="normal" in2="BackgroundImageFix" result="effect1_dropShadow_1_115"/>
<feBlend mode="normal" in="SourceGraphic" in2="effect1_dropShadow_1_115" result="shape"/>
</filter>
<filter id="filter5_d_1_115" x="351.051" y="222.641" width="37.9971" height="67.429" filterUnits="userSpaceOnUse" color-interpolation-filters="sRGB">
<feFlood flood-opacity="0" result="BackgroundImageFix"/>
<feColorMatrix in="SourceAlpha" type="matrix" values="0 0 0 0 0 0 0 0 0 0 0 0 0 0 0 0 0 0 127 0" result="hardAlpha"/>
<feOffset/>
<feGaussianBlur stdDeviation="7.5"/>
<feComposite in2="hardAlpha" operator="out"/>
<feColorMatrix type="matrix" values="0 0 0 0 0.854902 0 0 0 0 0.262745 0 0 0 0 0.768627 0 0 0 0.6 0"/>
<feBlend mode="normal" in2="BackgroundImageFix" result="effect1_dropShadow_1_115"/>
<feBlend mode="normal" in="SourceGraphic" in2="effect1_dropShadow_1_115" result="shape"/>
</filter>
<filter id="filter6_d_1_115" x="365.043" y="208.067" width="37.9971" height="96.5767" filterUnits="userSpaceOnUse" color-interpolation-filters="sRGB">
<feFlood flood-opacity="0" result="BackgroundImageFix"/>
<feColorMatrix in="SourceAlpha" type="matrix" values="0 0 0 0 0 0 0 0 0 0 0 0 0 0 0 0 0 0 127 0" result="hardAlpha"/>
<feOffset/>
<feGaussianBlur stdDeviation="7.5"/>
<feComposite in2="hardAlpha" operator="out"/>
<feColorMatrix type="matrix" values="0 0 0 0 0.854902 0 0 0 0 0.262745 0 0 0 0 0.768627 0 0 0 0.6 0"/>
<feBlend mode="normal" in2="BackgroundImageFix" result="effect1_dropShadow_1_115"/>
<feBlend mode="normal" in="SourceGraphic" in2="effect1_dropShadow_1_115" result="shape"/>
</filter>
<filter id="filter7_d_1_115" x="379.034" y="219.722" width="37.9971" height="73.267" filterUnits="userSpaceOnUse" color-interpolation-filters="sRGB">
<feFlood flood-opacity="0" result="BackgroundImageFix"/>
<feColorMatrix in="SourceAlpha" type="matrix" values="0 0 0 0 0 0 0 0 0 0 0 0 0 0 0 0 0 0 127 0" result="hardAlpha"/>
<feOffset/>
<feGaussianBlur stdDeviation="7.5"/>
<feComposite in2="hardAlpha" operator="out"/>
<feColorMatrix type="matrix" values="0 0 0 0 0.854902 0 0 0 0 0.262745 0 0 0 0 0.768627 0 0 0 0.6 0"/>
<feBlend mode="normal" in2="BackgroundImageFix" result="effect1_dropShadow_1_115"/>
<feBlend mode="normal" in="SourceGraphic" in2="effect1_dropShadow_1_115" result="shape"/>
</filter>
<filter id="filter8_d_1_115" x="393.026" y="227.506" width="37.9971" height="57.6989" filterUnits="userSpaceOnUse" color-interpolation-filters="sRGB">
<feFlood flood-opacity="0" result="BackgroundImageFix"/>
<feColorMatrix in="SourceAlpha" type="matrix" values="0 0 0 0 0 0 0 0 0 0 0 0 0 0 0 0 0 0 127 0" result="hardAlpha"/>
<feOffset/>
<feGaussianBlur stdDeviation="7.5"/>
<feComposite in2="hardAlpha" operator="out"/>
<feColorMatrix type="matrix" values="0 0 0 0 0.854902 0 0 0 0 0.262745 0 0 0 0 0.768627 0 0 0 0.6 0"/>
<feBlend mode="normal" in2="BackgroundImageFix" result="effect1_dropShadow_1_115"/>
<feBlend mode="normal" in="SourceGraphic" in2="effect1_dropShadow_1_115" result="shape"/>
</filter>
<filter id="filter9_f_1_115" x="291.966" y="0" width="696.083" height="512.711" filterUnits="userSpaceOnUse" color-interpolation-filters="sRGB">
<feFlood flood-opacity="0" result="BackgroundImageFix"/>
<feBlend mode="normal" in="SourceGraphic" in2="BackgroundImageFix" result="shape"/>
<feGaussianBlur stdDeviation="64" result="effect1_foregroundBlur_1_115"/>
</filter>
<filter id="filter10_d_1_115" x="391" y="115.27" width="498.014" height="332.171" filterUnits="userSpaceOnUse" color-interpolation-filters="sRGB">
<feFlood flood-opacity="0" result="BackgroundImageFix"/>
<feColorMatrix in="SourceAlpha" type="matrix" values="0 0 0 0 0 0 0 0 0 0 0 0 0 0 0 0 0 0 127 0" result="hardAlpha"/>
<feOffset dy="25"/>
<feGaussianBlur stdDeviation="25"/>
<feColorMatrix type="matrix" values="0 0 0 0 0 0 0 0 0 0 0 0 0 0 0 0 0 0 0.15 0"/>
<feBlend mode="normal" in2="BackgroundImageFix" result="effect1_dropShadow_1_115"/>
<feBlend mode="normal" in="SourceGraphic" in2="effect1_dropShadow_1_115" result="shape"/>
</filter>
<filter id="filter11_d_1_115" x="848.991" y="224.04" width="37.9972" height="64.6165" filterUnits="userSpaceOnUse" color-interpolation-filters="sRGB">
<feFlood flood-opacity="0" result="BackgroundImageFix"/>
<feColorMatrix in="SourceAlpha" type="matrix" values="0 0 0 0 0 0 0 0 0 0 0 0 0 0 0 0 0 0 127 0" result="hardAlpha"/>
<feOffset/>
<feGaussianBlur stdDeviation="7.5"/>
<feComposite in2="hardAlpha" operator="out"/>
<feColorMatrix type="matrix" values="0 0 0 0 0.521569 0 0 0 0 0.843137 0 0 0 0 0.964706 0 0 0 0.6 0"/>
<feBlend mode="normal" in2="BackgroundImageFix" result="effect1_dropShadow_1_115"/>
<feBlend mode="normal" in="SourceGraphic" in2="effect1_dropShadow_1_115" result="shape"/>
</filter>
<filter id="filter12_d_1_115" x="862.983" y="219.715" width="37.9972" height="73.267" filterUnits="userSpaceOnUse" color-interpolation-filters="sRGB">
<feFlood flood-opacity="0" result="BackgroundImageFix"/>
<feColorMatrix in="SourceAlpha" type="matrix" values="0 0 0 0 0 0 0 0 0 0 0 0 0 0 0 0 0 0 127 0" result="hardAlpha"/>
<feOffset/>
<feGaussianBlur stdDeviation="7.5"/>
<feComposite in2="hardAlpha" operator="out"/>
<feColorMatrix type="matrix" values="0 0 0 0 0.521569 0 0 0 0 0.843137 0 0 0 0 0.964706 0 0 0 0.6 0"/>
<feBlend mode="normal" in2="BackgroundImageFix" result="effect1_dropShadow_1_115"/>
<feBlend mode="normal" in="SourceGraphic" in2="effect1_dropShadow_1_115" result="shape"/>
</filter>
<filter id="filter13_d_1_115" x="876.974" y="226.554" width="37.9972" height="59.5881" filterUnits="userSpaceOnUse" color-interpolation-filters="sRGB">
<feFlood flood-opacity="0" result="BackgroundImageFix"/>
<feColorMatrix in="SourceAlpha" type="matrix" values="0 0 0 0 0 0 0 0 0 0 0 0 0 0 0 0 0 0 127 0" result="hardAlpha"/>
<feOffset/>
<feGaussianBlur stdDeviation="7.5"/>
<feComposite in2="hardAlpha" operator="out"/>
<feColorMatrix type="matrix" values="0 0 0 0 0.521569 0 0 0 0 0.843137 0 0 0 0 0.964706 0 0 0 0.6 0"/>
<feBlend mode="normal" in2="BackgroundImageFix" result="effect1_dropShadow_1_115"/>
<feBlend mode="normal" in="SourceGraphic" in2="effect1_dropShadow_1_115" result="shape"/>
</filter>
<filter id="filter14_d_1_115" x="890.966" y="211.398" width="37.9972" height="89.9006" filterUnits="userSpaceOnUse" color-interpolation-filters="sRGB">
<feFlood flood-opacity="0" result="BackgroundImageFix"/>
<feColorMatrix in="SourceAlpha" type="matrix" values="0 0 0 0 0 0 0 0 0 0 0 0 0 0 0 0 0 0 127 0" result="hardAlpha"/>
<feOffset/>
<feGaussianBlur stdDeviation="7.5"/>
<feComposite in2="hardAlpha" operator="out"/>
<feColorMatrix type="matrix" values="0 0 0 0 0.521569 0 0 0 0 0.843137 0 0 0 0 0.964706 0 0 0 0.6 0"/>
<feBlend mode="normal" in2="BackgroundImageFix" result="effect1_dropShadow_1_115"/>
<feBlend mode="normal" in="SourceGraphic" in2="effect1_dropShadow_1_115" result="shape"/>
</filter>
<filter id="filter15_d_1_115" x="904.957" y="215.127" width="37.9972" height="82.4432" filterUnits="userSpaceOnUse" color-interpolation-filters="sRGB">
<feFlood flood-opacity="0" result="BackgroundImageFix"/>
<feColorMatrix in="SourceAlpha" type="matrix" values="0 0 0 0 0 0 0 0 0 0 0 0 0 0 0 0 0 0 127 0" result="hardAlpha"/>
<feOffset/>
<feGaussianBlur stdDeviation="7.5"/>
<feComposite in2="hardAlpha" operator="out"/>
<feColorMatrix type="matrix" values="0 0 0 0 0.521569 0 0 0 0 0.843137 0 0 0 0 0.964706 0 0 0 0.6 0"/>
<feBlend mode="normal" in2="BackgroundImageFix" result="effect1_dropShadow_1_115"/>
<feBlend mode="normal" in="SourceGraphic" in2="effect1_dropShadow_1_115" result="shape"/>
</filter>
<filter id="filter16_d_1_115" x="918.949" y="222.776" width="37.9972" height="67.1449" filterUnits="userSpaceOnUse" color-interpolation-filters="sRGB">
<feFlood flood-opacity="0" result="BackgroundImageFix"/>
<feColorMatrix in="SourceAlpha" type="matrix" values="0 0 0 0 0 0 0 0 0 0 0 0 0 0 0 0 0 0 127 0" result="hardAlpha"/>
<feOffset/>
<feGaussianBlur stdDeviation="7.5"/>
<feComposite in2="hardAlpha" operator="out"/>
<feColorMatrix type="matrix" values="0 0 0 0 0.521569 0 0 0 0 0.843137 0 0 0 0 0.964706 0 0 0 0.6 0"/>
<feBlend mode="normal" in2="BackgroundImageFix" result="effect1_dropShadow_1_115"/>
<feBlend mode="normal" in="SourceGraphic" in2="effect1_dropShadow_1_115" result="shape"/>
</filter>
<filter id="filter17_d_1_115" x="932.94" y="208.508" width="37.9972" height="95.6818" filterUnits="userSpaceOnUse" color-interpolation-filters="sRGB">
<feFlood flood-opacity="0" result="BackgroundImageFix"/>
<feColorMatrix in="SourceAlpha" type="matrix" values="0 0 0 0 0 0 0 0 0 0 0 0 0 0 0 0 0 0 127 0" result="hardAlpha"/>
<feOffset/>
<feGaussianBlur stdDeviation="7.5"/>
<feComposite in2="hardAlpha" operator="out"/>
<feColorMatrix type="matrix" values="0 0 0 0 0.521569 0 0 0 0 0.843137 0 0 0 0 0.964706 0 0 0 0.6 0"/>
<feBlend mode="normal" in2="BackgroundImageFix" result="effect1_dropShadow_1_115"/>
<feBlend mode="normal" in="SourceGraphic" in2="effect1_dropShadow_1_115" result="shape"/>
</filter>
<filter id="filter18_d_1_115" x="946.932" y="220.063" width="37.9972" height="72.571" filterUnits="userSpaceOnUse" color-interpolation-filters="sRGB">
<feFlood flood-opacity="0" result="BackgroundImageFix"/>
<feColorMatrix in="SourceAlpha" type="matrix" values="0 0 0 0 0 0 0 0 0 0 0 0 0 0 0 0 0 0 127 0" result="hardAlpha"/>
<feOffset/>
<feGaussianBlur stdDeviation="7.5"/>
<feComposite in2="hardAlpha" operator="out"/>
<feColorMatrix type="matrix" values="0 0 0 0 0.521569 0 0 0 0 0.843137 0 0 0 0 0.964706 0 0 0 0.6 0"/>
<feBlend mode="normal" in2="BackgroundImageFix" result="effect1_dropShadow_1_115"/>
<feBlend mode="normal" in="SourceGraphic" in2="effect1_dropShadow_1_115" result="shape"/>
</filter>
<filter id="filter19_d_1_115" x="960.923" y="227.698" width="37.9972" height="57.3011" filterUnits="userSpaceOnUse" color-interpolation-filters="sRGB">
<feFlood flood-opacity="0" result="BackgroundImageFix"/>
<feColorMatrix in="SourceAlpha" type="matrix" values="0 0 0 0 0 0 0 0 0 0 0 0 0 0 0 0 0 0 127 0" result="hardAlpha"/>
<feOffset/>
<feGaussianBlur stdDeviation="7.5"/>
<feComposite in2="hardAlpha" operator="out"/>
<feColorMatrix type="matrix" values="0 0 0 0 0.521569 0 0 0 0 0.843137 0 0 0 0 0.964706 0 0 0 0.6 0"/>
<feBlend mode="normal" in2="BackgroundImageFix" result="effect1_dropShadow_1_115"/>
<feBlend mode="normal" in="SourceGraphic" in2="effect1_dropShadow_1_115" result="shape"/>
</filter>
<linearGradient id="paint0_linear_1_115" x1="260.141" y1="256.355" x2="256.15" y2="256.355" gradientUnits="userSpaceOnUse">
<stop stop-color="#DA43C4" stop-opacity="0.7"/>
<stop offset="1" stop-opacity="0"/>
</linearGradient>
<linearGradient id="paint1_linear_1_115" x1="270.127" y1="256.355" x2="266.136" y2="256.355" gradientUnits="userSpaceOnUse">
<stop stop-color="#DA43C4" stop-opacity="0.7"/>
<stop offset="1" stop-opacity="0"/>
</linearGradient>
<linearGradient id="paint2_linear_1_115" x1="280.113" y1="256.355" x2="276.122" y2="256.355" gradientUnits="userSpaceOnUse">
<stop stop-color="#DA43C4" stop-opacity="0.7"/>
<stop offset="1" stop-opacity="0"/>
</linearGradient>
<linearGradient id="paint3_linear_1_115" x1="290.099" y1="256.356" x2="286.108" y2="256.356" gradientUnits="userSpaceOnUse">
<stop stop-color="#DA43C4" stop-opacity="0.7"/>
<stop offset="1" stop-opacity="0"/>
</linearGradient>
<linearGradient id="paint4_linear_1_115" x1="304.091" y1="256.356" x2="296.093" y2="256.356" gradientUnits="userSpaceOnUse">
<stop stop-color="#DA43C4"/>
<stop offset="1" stop-color="#9D5FC9"/>
</linearGradient>
<linearGradient id="paint5_linear_1_115" x1="318.082" y1="256.356" x2="310.085" y2="256.356" gradientUnits="userSpaceOnUse">
<stop stop-color="#DA43C4"/>
<stop offset="1" stop-color="#9D5FC9"/>
</linearGradient>
<linearGradient id="paint6_linear_1_115" x1="332.074" y1="256.356" x2="324.076" y2="256.356" gradientUnits="userSpaceOnUse">
<stop stop-color="#DA43C4"/>
<stop offset="1" stop-color="#9D5FC9"/>
</linearGradient>
<linearGradient id="paint7_linear_1_115" x1="346.065" y1="256.356" x2="338.068" y2="256.356" gradientUnits="userSpaceOnUse">
<stop stop-color="#DA43C4"/>
<stop offset="1" stop-color="#9D5FC9"/>
</linearGradient>
<linearGradient id="paint8_linear_1_115" x1="360.057" y1="256.356" x2="352.059" y2="256.356" gradientUnits="userSpaceOnUse">
<stop stop-color="#DA43C4"/>
<stop offset="1" stop-color="#9D5FC9"/>
</linearGradient>
<linearGradient id="paint9_linear_1_115" x1="374.048" y1="256.355" x2="366.051" y2="256.355" gradientUnits="userSpaceOnUse">
<stop stop-color="#DA43C4"/>
<stop offset="1" stop-color="#9D5FC9"/>
</linearGradient>
<linearGradient id="paint10_linear_1_115" x1="388.04" y1="256.355" x2="380.043" y2="256.355" gradientUnits="userSpaceOnUse">
<stop stop-color="#DA43C4"/>
<stop offset="1" stop-color="#9D5FC9"/>
</linearGradient>
<linearGradient id="paint11_linear_1_115" x1="402.031" y1="256.356" x2="394.034" y2="256.356" gradientUnits="userSpaceOnUse">
<stop stop-color="#DA43C4"/>
<stop offset="1" stop-color="#9D5FC9"/>
</linearGradient>
<linearGradient id="paint12_linear_1_115" x1="416.023" y1="256.355" x2="408.026" y2="256.355" gradientUnits="userSpaceOnUse">
<stop stop-color="#DA43C4"/>
<stop offset="1" stop-color="#9D5FC9"/>
</linearGradient>
<radialGradient id="paint13_radial_1_115" cx="0" cy="0" r="1" gradientUnits="userSpaceOnUse" gradientTransform="translate(640.007 256.355) rotate(-90) scale(181.522 311.186)">
<stop stop-color="#DA43C4" stop-opacity="0.5"/>
<stop offset="1" stop-color="#06B6D4" stop-opacity="0.4"/>
</radialGradient>
<linearGradient id="paint14_linear_1_115" x1="783.221" y1="302.411" x2="156.107" y2="212.192" gradientUnits="userSpaceOnUse">
<stop stop-color="#85D7F6"/>
<stop offset="0.5" stop-color="#9D5FC9"/>
<stop offset="1" stop-color="#DA43C4"/>
</linearGradient>
<linearGradient id="paint15_linear_1_115" x1="863.991" y1="256.348" x2="871.989" y2="256.348" gradientUnits="userSpaceOnUse">
<stop stop-color="#85D7F6"/>
<stop offset="1" stop-color="#4FACFE"/>
</linearGradient>
<linearGradient id="paint16_linear_1_115" x1="877.983" y1="256.348" x2="885.98" y2="256.348" gradientUnits="userSpaceOnUse">
<stop stop-color="#85D7F6"/>
<stop offset="1" stop-color="#4FACFE"/>
</linearGradient>
<linearGradient id="paint17_linear_1_115" x1="891.974" y1="256.348" x2="899.971" y2="256.348" gradientUnits="userSpaceOnUse">
<stop stop-color="#85D7F6"/>
<stop offset="1" stop-color="#4FACFE"/>
</linearGradient>
<linearGradient id="paint18_linear_1_115" x1="905.966" y1="256.348" x2="913.963" y2="256.348" gradientUnits="userSpaceOnUse">
<stop stop-color="#85D7F6"/>
<stop offset="1" stop-color="#4FACFE"/>
</linearGradient>
<linearGradient id="paint19_linear_1_115" x1="919.957" y1="256.348" x2="927.954" y2="256.348" gradientUnits="userSpaceOnUse">
<stop stop-color="#85D7F6"/>
<stop offset="1" stop-color="#4FACFE"/>
</linearGradient>
<linearGradient id="paint20_linear_1_115" x1="933.949" y1="256.348" x2="941.946" y2="256.348" gradientUnits="userSpaceOnUse">
<stop stop-color="#85D7F6"/>
<stop offset="1" stop-color="#4FACFE"/>
</linearGradient>
<linearGradient id="paint21_linear_1_115" x1="947.94" y1="256.348" x2="955.937" y2="256.348" gradientUnits="userSpaceOnUse">
<stop stop-color="#85D7F6"/>
<stop offset="1" stop-color="#4FACFE"/>
</linearGradient>
<linearGradient id="paint22_linear_1_115" x1="961.932" y1="256.348" x2="969.929" y2="256.348" gradientUnits="userSpaceOnUse">
<stop stop-color="#85D7F6"/>
<stop offset="1" stop-color="#4FACFE"/>
</linearGradient>
<linearGradient id="paint23_linear_1_115" x1="975.923" y1="256.348" x2="983.92" y2="256.348" gradientUnits="userSpaceOnUse">
<stop stop-color="#85D7F6"/>
<stop offset="1" stop-color="#4FACFE"/>
</linearGradient>
<linearGradient id="paint24_linear_1_115" x1="989.915" y1="256.348" x2="993.906" y2="256.348" gradientUnits="userSpaceOnUse">
<stop stop-color="#85D7F6" stop-opacity="0.7"/>
<stop offset="1" stop-opacity="0"/>
</linearGradient>
<linearGradient id="paint25_linear_1_115" x1="999.9" y1="256.348" x2="1003.89" y2="256.348" gradientUnits="userSpaceOnUse">
<stop stop-color="#85D7F6" stop-opacity="0.7"/>
<stop offset="1" stop-opacity="0"/>
</linearGradient>
<linearGradient id="paint26_linear_1_115" x1="1009.89" y1="256.348" x2="1013.88" y2="256.348" gradientUnits="userSpaceOnUse">
<stop stop-color="#85D7F6" stop-opacity="0.7"/>
<stop offset="1" stop-opacity="0"/>
</linearGradient>
<linearGradient id="paint27_linear_1_115" x1="1019.87" y1="256.348" x2="1023.86" y2="256.348" gradientUnits="userSpaceOnUse">
<stop stop-color="#85D7F6" stop-opacity="0.7"/>
<stop offset="1" stop-opacity="0"/>
</linearGradient>
<clipPath id="clip0_1_115">
<rect width="398.014" height="232.171" fill="white" transform="translate(441 140.27)"/>
</clipPath>
</defs>
</svg>
