<svg width="1281" height="513" fill="none" xmlns="http://www.w3.org/2000/svg"><path d="M256.15 254.928a1.996 1.996 0 013.991 0v2.855a1.996 1.996 0 11-3.991 0v-2.855z" fill="url(#prefix__paint0_linear_1_115)" opacity=".314"/><path d="M266.136 251.022a1.995 1.995 0 113.991 0v10.667a1.995 1.995 0 11-3.991 0v-10.667z" fill="url(#prefix__paint1_linear_1_115)" opacity=".322"/><path d="M276.122 246.547a1.995 1.995 0 113.991 0v19.617a1.995 1.995 0 11-3.991 0v-19.617z" fill="url(#prefix__paint2_linear_1_115)" opacity=".333"/><path d="M286.108 241.519a1.996 1.996 0 113.991 0v29.673a1.996 1.996 0 01-3.991 0v-29.673z" fill="url(#prefix__paint3_linear_1_115)" opacity=".345"/><g opacity=".58" filter="url(#prefix__filter0_d_1_115)"><path d="M296.093 243.287a3.999 3.999 0 017.998 0v26.137a3.999 3.999 0 01-7.998 0v-26.137z" fill="url(#prefix__paint4_linear_1_115)"/></g><g opacity=".602" filter="url(#prefix__filter1_d_1_115)"><path d="M310.085 239.069a3.998 3.998 0 117.997 0v34.573a3.998 3.998 0 11-7.997 0v-34.573z" fill="url(#prefix__paint5_linear_1_115)"/></g><g opacity=".627" filter="url(#prefix__filter2_d_1_115)"><path d="M324.076 231.164a4 4 0 017.998 0v50.383a4 4 0 01-7.998 0v-50.383z" fill="url(#prefix__paint6_linear_1_115)"/></g><g opacity=".655" filter="url(#prefix__filter3_d_1_115)"><path d="M338.068 245.496a3.998 3.998 0 017.997 0v21.719a3.998 3.998 0 01-7.997 0v-21.719z" fill="url(#prefix__paint7_linear_1_115)"/></g><g opacity=".685" filter="url(#prefix__filter4_d_1_115)"><path d="M352.059 234.132a3.999 3.999 0 017.998 0v44.447a3.999 3.999 0 01-7.998 0v-44.447z" fill="url(#prefix__paint8_linear_1_115)"/></g><g opacity=".719" filter="url(#prefix__filter5_d_1_115)"><path d="M366.051 241.64a3.998 3.998 0 117.997 0v29.431a3.998 3.998 0 11-7.997 0V241.64z" fill="url(#prefix__paint9_linear_1_115)"/></g><g opacity=".755" filter="url(#prefix__filter6_d_1_115)"><path d="M380.043 227.066a3.998 3.998 0 117.997 0v58.579a4 4 0 01-7.997 0v-58.579z" fill="url(#prefix__paint10_linear_1_115)"/></g><g opacity=".794" filter="url(#prefix__filter7_d_1_115)"><path d="M394.034 238.721a3.998 3.998 0 117.997 0v35.269a3.998 3.998 0 11-7.997 0v-35.269z" fill="url(#prefix__paint11_linear_1_115)"/></g><g opacity=".835" filter="url(#prefix__filter8_d_1_115)"><path d="M408.026 246.505a3.998 3.998 0 117.997 0v19.701a4 4 0 01-7.997 0v-19.701z" fill="url(#prefix__paint12_linear_1_115)"/></g><g opacity=".726" filter="url(#prefix__filter9_f_1_115)"><path d="M419.966 256.355c0-70.888 57.466-128.355 128.355-128.355h183.372c70.889 0 128.356 57.467 128.356 128.355 0 70.889-57.467 128.356-128.356 128.356H548.321c-70.889 0-128.355-57.467-128.355-128.356z" fill="url(#prefix__paint13_radial_1_115)"/></g><g opacity=".032"><mask id="prefix__a" fill="#fff"><path d="M369.148 256.356c0-87.261 70.739-157.999 157.999-157.999h225.72c87.261 0 157.999 70.738 157.999 157.999 0 87.26-70.738 157.998-157.999 157.998h-225.72c-87.26 0-157.999-70.738-157.999-157.998z"/></mask><path d="M527.147 98.357v1.818h225.72v-3.636h-225.72v1.818zM752.867 414.354v-1.818h-225.72v3.636h225.72v-1.818zm-225.72 0v-1.818c-86.256 0-156.181-69.924-156.181-156.18h-3.636c0 88.264 71.552 159.816 159.817 159.816v-1.818zm383.719-157.998h-1.818c0 86.256-69.925 156.18-156.181 156.18v3.636c88.265 0 159.817-71.552 159.817-159.816h-1.818zM752.867 98.357v1.818c86.256 0 156.181 69.924 156.181 156.181h3.636c0-88.265-71.552-159.817-159.817-159.817v1.818zm-225.72 0v-1.818c-88.265 0-159.817 71.552-159.817 159.817h3.636c0-86.257 69.925-156.181 156.181-156.181v-1.818z" fill="#00D3F3" fill-opacity=".3" mask="url(#prefix__a)"/></g><g clip-path="url(#prefix__clip0_1_115)" filter="url(#prefix__filter10_d_1_115)"><path opacity=".946" d="M661.458 140.27c51.431 0 93.647 39.449 98.042 89.739 36.848 2.404 65.992 33.053 65.992 70.51 0 39.024-31.636 70.66-70.661 70.66-.421 0-.842-.006-1.262-.014v.014H530.918a63.997 63.997 0 01-12.675 1.262c-35.192 0-63.721-28.529-63.721-63.721 0-30.41 21.304-55.845 49.801-62.195a52.157 52.157 0 01-.59-7.835c0-28.572 23.162-51.734 51.733-51.734a51.58 51.58 0 0119.916 3.974c16.802-30.215 49.051-50.66 86.076-50.66z" fill="url(#prefix__paint14_linear_1_115)"/><path opacity=".384" d="M530.467 285.682a1.893 1.893 0 100-3.786 1.893 1.893 0 000 3.786z" fill="#fff"/><path opacity=".589" d="M664.664 320.629a1.893 1.893 0 100-3.786 1.893 1.893 0 000 3.786z" fill="#fff"/><path opacity=".887" d="M722.644 244.323a1.892 1.892 0 10.002-3.784 1.892 1.892 0 00-.002 3.784z" fill="#fff"/><path opacity=".303" d="M724.712 299.194a1.892 1.892 0 100-3.784 1.892 1.892 0 000 3.784z" fill="#fff"/><path opacity=".702" d="M706.472 282.437a1.892 1.892 0 100-3.784 1.892 1.892 0 000 3.784z" fill="#fff"/><path opacity=".867" d="M623.053 232.457a1.892 1.892 0 10.001-3.785 1.892 1.892 0 00-.001 3.785z" fill="#fff"/><path opacity=".301" d="M758.284 331.038a1.893 1.893 0 100-3.786 1.893 1.893 0 000 3.786z" fill="#fff"/><path opacity=".886" d="M677.32 200.078a1.893 1.893 0 100-3.786 1.893 1.893 0 000 3.786z" fill="#fff"/><path opacity=".321" d="M506.622 263.105a1.892 1.892 0 10.001-3.785 1.892 1.892 0 00-.001 3.785z" fill="#fff"/><path opacity=".737" d="M779.858 302.05a1.892 1.892 0 100-3.784 1.892 1.892 0 000 3.784z" fill="#fff"/><path opacity=".3" d="M765.113 259.816a1.892 1.892 0 100-3.784 1.892 1.892 0 000 3.784z" fill="#fff"/><path opacity=".807" d="M589.03 232.694a1.892 1.892 0 100-3.784 1.892 1.892 0 000 3.784z" fill="#fff"/><path opacity=".545" d="M725.411 313.887a1.893 1.893 0 100-3.786 1.893 1.893 0 000 3.786z" fill="#fff"/><path opacity=".551" d="M653.625 306.32a1.893 1.893 0 100-3.786 1.893 1.893 0 000 3.786z" fill="#fff"/><path opacity=".9" d="M676.172 259.937a1.894 1.894 0 10-.001-3.787 1.894 1.894 0 00.001 3.787z" fill="#fff"/><path opacity=".888" d="M605.727 280.553a1.893 1.893 0 10-.002-3.786 1.893 1.893 0 00.002 3.786z" fill="#fff"/><path opacity=".781" d="M512.624 328.483a1.892 1.892 0 10.001-3.785 1.892 1.892 0 00-.001 3.785z" fill="#fff"/><path opacity=".301" d="M776.053 247.309a1.892 1.892 0 10.001-3.785 1.892 1.892 0 00-.001 3.785z" fill="#fff"/><path opacity=".768" d="M601.031 254.226a1.893 1.893 0 100-3.786 1.893 1.893 0 000 3.786z" fill="#fff"/><path opacity=".315" d="M757.347 200.867a1.893 1.893 0 100-3.786 1.893 1.893 0 000 3.786z" fill="#fff"/></g><g opacity=".835" filter="url(#prefix__filter11_d_1_115)"><path d="M863.991 243.039a4 4 0 017.998 0v26.619a4 4 0 01-7.998 0v-26.619z" fill="url(#prefix__paint15_linear_1_115)"/></g><g opacity=".794" filter="url(#prefix__filter12_d_1_115)"><path d="M877.983 238.713a3.998 3.998 0 017.997 0v35.27a3.998 3.998 0 11-7.997 0v-35.27z" fill="url(#prefix__paint16_linear_1_115)"/></g><g opacity=".755" filter="url(#prefix__filter13_d_1_115)"><path d="M891.974 245.553a3.999 3.999 0 117.997 0v21.591a3.998 3.998 0 01-7.997 0v-21.591z" fill="url(#prefix__paint17_linear_1_115)"/></g><g opacity=".719" filter="url(#prefix__filter14_d_1_115)"><path d="M905.966 230.397a3.998 3.998 0 117.997 0V282.3a4 4 0 01-7.997 0v-51.903z" fill="url(#prefix__paint18_linear_1_115)"/></g><g opacity=".685" filter="url(#prefix__filter15_d_1_115)"><path d="M919.957 234.125a3.998 3.998 0 017.997 0v44.446a3.998 3.998 0 11-7.997 0v-44.446z" fill="url(#prefix__paint19_linear_1_115)"/></g><g opacity=".655" filter="url(#prefix__filter16_d_1_115)"><path d="M933.949 241.775a3.998 3.998 0 117.997 0v29.147a3.998 3.998 0 11-7.997 0v-29.147z" fill="url(#prefix__paint20_linear_1_115)"/></g><g opacity=".627" filter="url(#prefix__filter17_d_1_115)"><path d="M947.94 227.506a3.998 3.998 0 017.997 0v57.685a3.998 3.998 0 01-7.997 0v-57.685z" fill="url(#prefix__paint21_linear_1_115)"/></g><g opacity=".602" filter="url(#prefix__filter18_d_1_115)"><path d="M961.932 239.062a3.998 3.998 0 117.997 0v34.573a3.998 3.998 0 11-7.997 0v-34.573z" fill="url(#prefix__paint22_linear_1_115)"/></g><g opacity=".58" filter="url(#prefix__filter19_d_1_115)"><path d="M975.923 246.696a3.998 3.998 0 017.997 0V266a3.998 3.998 0 11-7.997 0v-19.304z" fill="url(#prefix__paint23_linear_1_115)"/></g><path d="M989.915 241.512a1.996 1.996 0 113.991 0v29.673a1.996 1.996 0 01-3.991 0v-29.673z" fill="url(#prefix__paint24_linear_1_115)" opacity=".345"/><path d="M999.9 246.54a1.995 1.995 0 113.99 0v19.617c0 1.102-.89 1.995-1.99 1.995-1.11 0-2-.893-2-1.995V246.54z" fill="url(#prefix__paint25_linear_1_115)" opacity=".333"/><path d="M1009.89 251.015c0-1.103.89-1.996 1.99-1.996a2 2 0 012 1.996v10.667c0 1.102-.9 1.996-2 1.996s-1.99-.894-1.99-1.996v-10.667z" fill="url(#prefix__paint26_linear_1_115)" opacity=".322"/><path d="M1019.87 254.921c0-1.102.9-1.996 2-1.996s1.99.894 1.99 1.996v2.855c0 1.102-.89 1.996-1.99 1.996s-2-.894-2-1.996v-2.855z" fill="url(#prefix__paint27_linear_1_115)" opacity=".314"/><defs><linearGradient id="prefix__paint0_linear_1_115" x1="260.141" y1="256.355" x2="256.15" y2="256.355" gradientUnits="userSpaceOnUse"><stop stop-color="#DA43C4" stop-opacity=".7"/><stop offset="1" stop-opacity="0"/></linearGradient><linearGradient id="prefix__paint1_linear_1_115" x1="270.127" y1="256.355" x2="266.136" y2="256.355" gradientUnits="userSpaceOnUse"><stop stop-color="#DA43C4" stop-opacity=".7"/><stop offset="1" stop-opacity="0"/></linearGradient><linearGradient id="prefix__paint2_linear_1_115" x1="280.113" y1="256.355" x2="276.122" y2="256.355" gradientUnits="userSpaceOnUse"><stop stop-color="#DA43C4" stop-opacity=".7"/><stop offset="1" stop-opacity="0"/></linearGradient><linearGradient id="prefix__paint3_linear_1_115" x1="290.099" y1="256.356" x2="286.108" y2="256.356" gradientUnits="userSpaceOnUse"><stop stop-color="#DA43C4" stop-opacity=".7"/><stop offset="1" stop-opacity="0"/></linearGradient><linearGradient id="prefix__paint4_linear_1_115" x1="304.091" y1="256.356" x2="296.093" y2="256.356" gradientUnits="userSpaceOnUse"><stop stop-color="#DA43C4"/><stop offset="1" stop-color="#9D5FC9"/></linearGradient><linearGradient id="prefix__paint5_linear_1_115" x1="318.082" y1="256.356" x2="310.085" y2="256.356" gradientUnits="userSpaceOnUse"><stop stop-color="#DA43C4"/><stop offset="1" stop-color="#9D5FC9"/></linearGradient><linearGradient id="prefix__paint6_linear_1_115" x1="332.074" y1="256.356" x2="324.076" y2="256.356" gradientUnits="userSpaceOnUse"><stop stop-color="#DA43C4"/><stop offset="1" stop-color="#9D5FC9"/></linearGradient><linearGradient id="prefix__paint7_linear_1_115" x1="346.065" y1="256.356" x2="338.068" y2="256.356" gradientUnits="userSpaceOnUse"><stop stop-color="#DA43C4"/><stop offset="1" stop-color="#9D5FC9"/></linearGradient><linearGradient id="prefix__paint8_linear_1_115" x1="360.057" y1="256.356" x2="352.059" y2="256.356" gradientUnits="userSpaceOnUse"><stop stop-color="#DA43C4"/><stop offset="1" stop-color="#9D5FC9"/></linearGradient><linearGradient id="prefix__paint9_linear_1_115" x1="374.048" y1="256.355" x2="366.051" y2="256.355" gradientUnits="userSpaceOnUse"><stop stop-color="#DA43C4"/><stop offset="1" stop-color="#9D5FC9"/></linearGradient><linearGradient id="prefix__paint10_linear_1_115" x1="388.04" y1="256.355" x2="380.043" y2="256.355" gradientUnits="userSpaceOnUse"><stop stop-color="#DA43C4"/><stop offset="1" stop-color="#9D5FC9"/></linearGradient><linearGradient id="prefix__paint11_linear_1_115" x1="402.031" y1="256.356" x2="394.034" y2="256.356" gradientUnits="userSpaceOnUse"><stop stop-color="#DA43C4"/><stop offset="1" stop-color="#9D5FC9"/></linearGradient><linearGradient id="prefix__paint12_linear_1_115" x1="416.023" y1="256.355" x2="408.026" y2="256.355" gradientUnits="userSpaceOnUse"><stop stop-color="#DA43C4"/><stop offset="1" stop-color="#9D5FC9"/></linearGradient><linearGradient id="prefix__paint14_linear_1_115" x1="783.221" y1="302.411" x2="156.107" y2="212.192" gradientUnits="userSpaceOnUse"><stop stop-color="#85D7F6"/><stop offset=".5" stop-color="#9D5FC9"/><stop offset="1" stop-color="#DA43C4"/></linearGradient><linearGradient id="prefix__paint15_linear_1_115" x1="863.991" y1="256.348" x2="871.989" y2="256.348" gradientUnits="userSpaceOnUse"><stop stop-color="#85D7F6"/><stop offset="1" stop-color="#4FACFE"/></linearGradient><linearGradient id="prefix__paint16_linear_1_115" x1="877.983" y1="256.348" x2="885.98" y2="256.348" gradientUnits="userSpaceOnUse"><stop stop-color="#85D7F6"/><stop offset="1" stop-color="#4FACFE"/></linearGradient><linearGradient id="prefix__paint17_linear_1_115" x1="891.974" y1="256.348" x2="899.971" y2="256.348" gradientUnits="userSpaceOnUse"><stop stop-color="#85D7F6"/><stop offset="1" stop-color="#4FACFE"/></linearGradient><linearGradient id="prefix__paint18_linear_1_115" x1="905.966" y1="256.348" x2="913.963" y2="256.348" gradientUnits="userSpaceOnUse"><stop stop-color="#85D7F6"/><stop offset="1" stop-color="#4FACFE"/></linearGradient><linearGradient id="prefix__paint19_linear_1_115" x1="919.957" y1="256.348" x2="927.954" y2="256.348" gradientUnits="userSpaceOnUse"><stop stop-color="#85D7F6"/><stop offset="1" stop-color="#4FACFE"/></linearGradient><linearGradient id="prefix__paint20_linear_1_115" x1="933.949" y1="256.348" x2="941.946" y2="256.348" gradientUnits="userSpaceOnUse"><stop stop-color="#85D7F6"/><stop offset="1" stop-color="#4FACFE"/></linearGradient><linearGradient id="prefix__paint21_linear_1_115" x1="947.94" y1="256.348" x2="955.937" y2="256.348" gradientUnits="userSpaceOnUse"><stop stop-color="#85D7F6"/><stop offset="1" stop-color="#4FACFE"/></linearGradient><linearGradient id="prefix__paint22_linear_1_115" x1="961.932" y1="256.348" x2="969.929" y2="256.348" gradientUnits="userSpaceOnUse"><stop stop-color="#85D7F6"/><stop offset="1" stop-color="#4FACFE"/></linearGradient><linearGradient id="prefix__paint23_linear_1_115" x1="975.923" y1="256.348" x2="983.92" y2="256.348" gradientUnits="userSpaceOnUse"><stop stop-color="#85D7F6"/><stop offset="1" stop-color="#4FACFE"/></linearGradient><linearGradient id="prefix__paint24_linear_1_115" x1="989.915" y1="256.348" x2="993.906" y2="256.348" gradientUnits="userSpaceOnUse"><stop stop-color="#85D7F6" stop-opacity=".7"/><stop offset="1" stop-opacity="0"/></linearGradient><linearGradient id="prefix__paint25_linear_1_115" x1="999.9" y1="256.348" x2="1003.89" y2="256.348" gradientUnits="userSpaceOnUse"><stop stop-color="#85D7F6" stop-opacity=".7"/><stop offset="1" stop-opacity="0"/></linearGradient><linearGradient id="prefix__paint26_linear_1_115" x1="1009.89" y1="256.348" x2="1013.88" y2="256.348" gradientUnits="userSpaceOnUse"><stop stop-color="#85D7F6" stop-opacity=".7"/><stop offset="1" stop-opacity="0"/></linearGradient><linearGradient id="prefix__paint27_linear_1_115" x1="1019.87" y1="256.348" x2="1023.86" y2="256.348" gradientUnits="userSpaceOnUse"><stop stop-color="#85D7F6" stop-opacity=".7"/><stop offset="1" stop-opacity="0"/></linearGradient><filter id="prefix__filter0_d_1_115" x="281.093" y="224.289" width="37.997" height="64.133" filterUnits="userSpaceOnUse" color-interpolation-filters="sRGB"><feFlood flood-opacity="0" result="BackgroundImageFix"/><feColorMatrix in="SourceAlpha" values="0 0 0 0 0 0 0 0 0 0 0 0 0 0 0 0 0 0 127 0" result="hardAlpha"/><feOffset/><feGaussianBlur stdDeviation="7.5"/><feComposite in2="hardAlpha" operator="out"/><feColorMatrix values="0 0 0 0 0.854902 0 0 0 0 0.262745 0 0 0 0 0.768627 0 0 0 0.6 0"/><feBlend in2="BackgroundImageFix" result="effect1_dropShadow_1_115"/><feBlend in="SourceGraphic" in2="effect1_dropShadow_1_115" result="shape"/></filter><filter id="prefix__filter1_d_1_115" x="295.085" y="220.07" width="37.997" height="72.571" filterUnits="userSpaceOnUse" color-interpolation-filters="sRGB"><feFlood flood-opacity="0" result="BackgroundImageFix"/><feColorMatrix in="SourceAlpha" values="0 0 0 0 0 0 0 0 0 0 0 0 0 0 0 0 0 0 127 0" result="hardAlpha"/><feOffset/><feGaussianBlur stdDeviation="7.5"/><feComposite in2="hardAlpha" operator="out"/><feColorMatrix values="0 0 0 0 0.854902 0 0 0 0 0.262745 0 0 0 0 0.768627 0 0 0 0.6 0"/><feBlend in2="BackgroundImageFix" result="effect1_dropShadow_1_115"/><feBlend in="SourceGraphic" in2="effect1_dropShadow_1_115" result="shape"/></filter><filter id="prefix__filter2_d_1_115" x="309.076" y="212.165" width="37.997" height="88.381" filterUnits="userSpaceOnUse" color-interpolation-filters="sRGB"><feFlood flood-opacity="0" result="BackgroundImageFix"/><feColorMatrix in="SourceAlpha" values="0 0 0 0 0 0 0 0 0 0 0 0 0 0 0 0 0 0 127 0" result="hardAlpha"/><feOffset/><feGaussianBlur stdDeviation="7.5"/><feComposite in2="hardAlpha" operator="out"/><feColorMatrix values="0 0 0 0 0.854902 0 0 0 0 0.262745 0 0 0 0 0.768627 0 0 0 0.6 0"/><feBlend in2="BackgroundImageFix" result="effect1_dropShadow_1_115"/><feBlend in="SourceGraphic" in2="effect1_dropShadow_1_115" result="shape"/></filter><filter id="prefix__filter3_d_1_115" x="323.068" y="226.498" width="37.997" height="59.716" filterUnits="userSpaceOnUse" color-interpolation-filters="sRGB"><feFlood flood-opacity="0" result="BackgroundImageFix"/><feColorMatrix in="SourceAlpha" values="0 0 0 0 0 0 0 0 0 0 0 0 0 0 0 0 0 0 127 0" result="hardAlpha"/><feOffset/><feGaussianBlur stdDeviation="7.5"/><feComposite in2="hardAlpha" operator="out"/><feColorMatrix values="0 0 0 0 0.854902 0 0 0 0 0.262745 0 0 0 0 0.768627 0 0 0 0.6 0"/><feBlend in2="BackgroundImageFix" result="effect1_dropShadow_1_115"/><feBlend in="SourceGraphic" in2="effect1_dropShadow_1_115" result="shape"/></filter><filter id="prefix__filter4_d_1_115" x="337.059" y="215.134" width="37.997" height="82.443" filterUnits="userSpaceOnUse" color-interpolation-filters="sRGB"><feFlood flood-opacity="0" result="BackgroundImageFix"/><feColorMatrix in="SourceAlpha" values="0 0 0 0 0 0 0 0 0 0 0 0 0 0 0 0 0 0 127 0" result="hardAlpha"/><feOffset/><feGaussianBlur stdDeviation="7.5"/><feComposite in2="hardAlpha" operator="out"/><feColorMatrix values="0 0 0 0 0.854902 0 0 0 0 0.262745 0 0 0 0 0.768627 0 0 0 0.6 0"/><feBlend in2="BackgroundImageFix" result="effect1_dropShadow_1_115"/><feBlend in="SourceGraphic" in2="effect1_dropShadow_1_115" result="shape"/></filter><filter id="prefix__filter5_d_1_115" x="351.051" y="222.641" width="37.997" height="67.429" filterUnits="userSpaceOnUse" color-interpolation-filters="sRGB"><feFlood flood-opacity="0" result="BackgroundImageFix"/><feColorMatrix in="SourceAlpha" values="0 0 0 0 0 0 0 0 0 0 0 0 0 0 0 0 0 0 127 0" result="hardAlpha"/><feOffset/><feGaussianBlur stdDeviation="7.5"/><feComposite in2="hardAlpha" operator="out"/><feColorMatrix values="0 0 0 0 0.854902 0 0 0 0 0.262745 0 0 0 0 0.768627 0 0 0 0.6 0"/><feBlend in2="BackgroundImageFix" result="effect1_dropShadow_1_115"/><feBlend in="SourceGraphic" in2="effect1_dropShadow_1_115" result="shape"/></filter><filter id="prefix__filter6_d_1_115" x="365.043" y="208.067" width="37.997" height="96.577" filterUnits="userSpaceOnUse" color-interpolation-filters="sRGB"><feFlood flood-opacity="0" result="BackgroundImageFix"/><feColorMatrix in="SourceAlpha" values="0 0 0 0 0 0 0 0 0 0 0 0 0 0 0 0 0 0 127 0" result="hardAlpha"/><feOffset/><feGaussianBlur stdDeviation="7.5"/><feComposite in2="hardAlpha" operator="out"/><feColorMatrix values="0 0 0 0 0.854902 0 0 0 0 0.262745 0 0 0 0 0.768627 0 0 0 0.6 0"/><feBlend in2="BackgroundImageFix" result="effect1_dropShadow_1_115"/><feBlend in="SourceGraphic" in2="effect1_dropShadow_1_115" result="shape"/></filter><filter id="prefix__filter7_d_1_115" x="379.034" y="219.722" width="37.997" height="73.267" filterUnits="userSpaceOnUse" color-interpolation-filters="sRGB"><feFlood flood-opacity="0" result="BackgroundImageFix"/><feColorMatrix in="SourceAlpha" values="0 0 0 0 0 0 0 0 0 0 0 0 0 0 0 0 0 0 127 0" result="hardAlpha"/><feOffset/><feGaussianBlur stdDeviation="7.5"/><feComposite in2="hardAlpha" operator="out"/><feColorMatrix values="0 0 0 0 0.854902 0 0 0 0 0.262745 0 0 0 0 0.768627 0 0 0 0.6 0"/><feBlend in2="BackgroundImageFix" result="effect1_dropShadow_1_115"/><feBlend in="SourceGraphic" in2="effect1_dropShadow_1_115" result="shape"/></filter><filter id="prefix__filter8_d_1_115" x="393.026" y="227.506" width="37.997" height="57.699" filterUnits="userSpaceOnUse" color-interpolation-filters="sRGB"><feFlood flood-opacity="0" result="BackgroundImageFix"/><feColorMatrix in="SourceAlpha" values="0 0 0 0 0 0 0 0 0 0 0 0 0 0 0 0 0 0 127 0" result="hardAlpha"/><feOffset/><feGaussianBlur stdDeviation="7.5"/><feComposite in2="hardAlpha" operator="out"/><feColorMatrix values="0 0 0 0 0.854902 0 0 0 0 0.262745 0 0 0 0 0.768627 0 0 0 0.6 0"/><feBlend in2="BackgroundImageFix" result="effect1_dropShadow_1_115"/><feBlend in="SourceGraphic" in2="effect1_dropShadow_1_115" result="shape"/></filter><filter id="prefix__filter9_f_1_115" x="291.966" y="0" width="696.083" height="512.711" filterUnits="userSpaceOnUse" color-interpolation-filters="sRGB"><feFlood flood-opacity="0" result="BackgroundImageFix"/><feBlend in="SourceGraphic" in2="BackgroundImageFix" result="shape"/><feGaussianBlur stdDeviation="64" result="effect1_foregroundBlur_1_115"/></filter><filter id="prefix__filter10_d_1_115" x="391" y="115.27" width="498.014" height="332.171" filterUnits="userSpaceOnUse" color-interpolation-filters="sRGB"><feFlood flood-opacity="0" result="BackgroundImageFix"/><feColorMatrix in="SourceAlpha" values="0 0 0 0 0 0 0 0 0 0 0 0 0 0 0 0 0 0 127 0" result="hardAlpha"/><feOffset dy="25"/><feGaussianBlur stdDeviation="25"/><feColorMatrix values="0 0 0 0 0 0 0 0 0 0 0 0 0 0 0 0 0 0 0.15 0"/><feBlend in2="BackgroundImageFix" result="effect1_dropShadow_1_115"/><feBlend in="SourceGraphic" in2="effect1_dropShadow_1_115" result="shape"/></filter><filter id="prefix__filter11_d_1_115" x="848.991" y="224.04" width="37.997" height="64.617" filterUnits="userSpaceOnUse" color-interpolation-filters="sRGB"><feFlood flood-opacity="0" result="BackgroundImageFix"/><feColorMatrix in="SourceAlpha" values="0 0 0 0 0 0 0 0 0 0 0 0 0 0 0 0 0 0 127 0" result="hardAlpha"/><feOffset/><feGaussianBlur stdDeviation="7.5"/><feComposite in2="hardAlpha" operator="out"/><feColorMatrix values="0 0 0 0 0.521569 0 0 0 0 0.843137 0 0 0 0 0.964706 0 0 0 0.6 0"/><feBlend in2="BackgroundImageFix" result="effect1_dropShadow_1_115"/><feBlend in="SourceGraphic" in2="effect1_dropShadow_1_115" result="shape"/></filter><filter id="prefix__filter12_d_1_115" x="862.983" y="219.715" width="37.997" height="73.267" filterUnits="userSpaceOnUse" color-interpolation-filters="sRGB"><feFlood flood-opacity="0" result="BackgroundImageFix"/><feColorMatrix in="SourceAlpha" values="0 0 0 0 0 0 0 0 0 0 0 0 0 0 0 0 0 0 127 0" result="hardAlpha"/><feOffset/><feGaussianBlur stdDeviation="7.5"/><feComposite in2="hardAlpha" operator="out"/><feColorMatrix values="0 0 0 0 0.521569 0 0 0 0 0.843137 0 0 0 0 0.964706 0 0 0 0.6 0"/><feBlend in2="BackgroundImageFix" result="effect1_dropShadow_1_115"/><feBlend in="SourceGraphic" in2="effect1_dropShadow_1_115" result="shape"/></filter><filter id="prefix__filter13_d_1_115" x="876.974" y="226.554" width="37.997" height="59.588" filterUnits="userSpaceOnUse" color-interpolation-filters="sRGB"><feFlood flood-opacity="0" result="BackgroundImageFix"/><feColorMatrix in="SourceAlpha" values="0 0 0 0 0 0 0 0 0 0 0 0 0 0 0 0 0 0 127 0" result="hardAlpha"/><feOffset/><feGaussianBlur stdDeviation="7.5"/><feComposite in2="hardAlpha" operator="out"/><feColorMatrix values="0 0 0 0 0.521569 0 0 0 0 0.843137 0 0 0 0 0.964706 0 0 0 0.6 0"/><feBlend in2="BackgroundImageFix" result="effect1_dropShadow_1_115"/><feBlend in="SourceGraphic" in2="effect1_dropShadow_1_115" result="shape"/></filter><filter id="prefix__filter14_d_1_115" x="890.966" y="211.398" width="37.997" height="89.901" filterUnits="userSpaceOnUse" color-interpolation-filters="sRGB"><feFlood flood-opacity="0" result="BackgroundImageFix"/><feColorMatrix in="SourceAlpha" values="0 0 0 0 0 0 0 0 0 0 0 0 0 0 0 0 0 0 127 0" result="hardAlpha"/><feOffset/><feGaussianBlur stdDeviation="7.5"/><feComposite in2="hardAlpha" operator="out"/><feColorMatrix values="0 0 0 0 0.521569 0 0 0 0 0.843137 0 0 0 0 0.964706 0 0 0 0.6 0"/><feBlend in2="BackgroundImageFix" result="effect1_dropShadow_1_115"/><feBlend in="SourceGraphic" in2="effect1_dropShadow_1_115" result="shape"/></filter><filter id="prefix__filter15_d_1_115" x="904.957" y="215.127" width="37.997" height="82.443" filterUnits="userSpaceOnUse" color-interpolation-filters="sRGB"><feFlood flood-opacity="0" result="BackgroundImageFix"/><feColorMatrix in="SourceAlpha" values="0 0 0 0 0 0 0 0 0 0 0 0 0 0 0 0 0 0 127 0" result="hardAlpha"/><feOffset/><feGaussianBlur stdDeviation="7.5"/><feComposite in2="hardAlpha" operator="out"/><feColorMatrix values="0 0 0 0 0.521569 0 0 0 0 0.843137 0 0 0 0 0.964706 0 0 0 0.6 0"/><feBlend in2="BackgroundImageFix" result="effect1_dropShadow_1_115"/><feBlend in="SourceGraphic" in2="effect1_dropShadow_1_115" result="shape"/></filter><filter id="prefix__filter16_d_1_115" x="918.949" y="222.776" width="37.997" height="67.145" filterUnits="userSpaceOnUse" color-interpolation-filters="sRGB"><feFlood flood-opacity="0" result="BackgroundImageFix"/><feColorMatrix in="SourceAlpha" values="0 0 0 0 0 0 0 0 0 0 0 0 0 0 0 0 0 0 127 0" result="hardAlpha"/><feOffset/><feGaussianBlur stdDeviation="7.5"/><feComposite in2="hardAlpha" operator="out"/><feColorMatrix values="0 0 0 0 0.521569 0 0 0 0 0.843137 0 0 0 0 0.964706 0 0 0 0.6 0"/><feBlend in2="BackgroundImageFix" result="effect1_dropShadow_1_115"/><feBlend in="SourceGraphic" in2="effect1_dropShadow_1_115" result="shape"/></filter><filter id="prefix__filter17_d_1_115" x="932.94" y="208.508" width="37.997" height="95.682" filterUnits="userSpaceOnUse" color-interpolation-filters="sRGB"><feFlood flood-opacity="0" result="BackgroundImageFix"/><feColorMatrix in="SourceAlpha" values="0 0 0 0 0 0 0 0 0 0 0 0 0 0 0 0 0 0 127 0" result="hardAlpha"/><feOffset/><feGaussianBlur stdDeviation="7.5"/><feComposite in2="hardAlpha" operator="out"/><feColorMatrix values="0 0 0 0 0.521569 0 0 0 0 0.843137 0 0 0 0 0.964706 0 0 0 0.6 0"/><feBlend in2="BackgroundImageFix" result="effect1_dropShadow_1_115"/><feBlend in="SourceGraphic" in2="effect1_dropShadow_1_115" result="shape"/></filter><filter id="prefix__filter18_d_1_115" x="946.932" y="220.063" width="37.997" height="72.571" filterUnits="userSpaceOnUse" color-interpolation-filters="sRGB"><feFlood flood-opacity="0" result="BackgroundImageFix"/><feColorMatrix in="SourceAlpha" values="0 0 0 0 0 0 0 0 0 0 0 0 0 0 0 0 0 0 127 0" result="hardAlpha"/><feOffset/><feGaussianBlur stdDeviation="7.5"/><feComposite in2="hardAlpha" operator="out"/><feColorMatrix values="0 0 0 0 0.521569 0 0 0 0 0.843137 0 0 0 0 0.964706 0 0 0 0.6 0"/><feBlend in2="BackgroundImageFix" result="effect1_dropShadow_1_115"/><feBlend in="SourceGraphic" in2="effect1_dropShadow_1_115" result="shape"/></filter><filter id="prefix__filter19_d_1_115" x="960.923" y="227.698" width="37.997" height="57.301" filterUnits="userSpaceOnUse" color-interpolation-filters="sRGB"><feFlood flood-opacity="0" result="BackgroundImageFix"/><feColorMatrix in="SourceAlpha" values="0 0 0 0 0 0 0 0 0 0 0 0 0 0 0 0 0 0 127 0" result="hardAlpha"/><feOffset/><feGaussianBlur stdDeviation="7.5"/><feComposite in2="hardAlpha" operator="out"/><feColorMatrix values="0 0 0 0 0.521569 0 0 0 0 0.843137 0 0 0 0 0.964706 0 0 0 0.6 0"/><feBlend in2="BackgroundImageFix" result="effect1_dropShadow_1_115"/><feBlend in="SourceGraphic" in2="effect1_dropShadow_1_115" result="shape"/></filter><radialGradient id="prefix__paint13_radial_1_115" cx="0" cy="0" r="1" gradientUnits="userSpaceOnUse" gradientTransform="matrix(0 -181.522 311.186 0 640.007 256.355)"><stop stop-color="#DA43C4" stop-opacity=".5"/><stop offset="1" stop-color="#06B6D4" stop-opacity=".4"/></radialGradient><clipPath id="prefix__clip0_1_115"><path fill="#fff" transform="translate(441 140.27)" d="M0 0h398.014v232.171H0z"/></clipPath></defs></svg>